<svg id="Layer_1" xmlns="http://www.w3.org/2000/svg" viewBox="0 0 1792 1792"><style>.st0{fill:#0a90cb}</style><path class="st0" d="M1280 896c0-24.7-10-42.7-30-54L738 522c-20.7-13.3-42.3-14-65-2-22 12-33 30.7-33 56v640c0 25.3 11 44 33 56 10.7 5.3 21 8 31 8 13.3 0 24.7-3.3 34-10l512-320c20-11.3 30-29.3 30-54zm512 0c0 64-.3 114-1 150s-3.5 81.5-8.5 136.5-12.5 104.2-22.5 147.5c-10.7 48.7-33.7 89.7-69 123s-76.7 52.7-124 58c-148 16.7-371.7 25-671 25s-523-8.3-671-25c-47.3-5.3-88.8-24.7-124.5-58s-58.8-74.3-69.5-123c-9.3-43.3-16.5-92.5-21.5-147.5S1.7 1082 1 1046s-1-86-1-150 .3-114 1-150 3.5-81.5 8.5-136.5S22 505.3 32 462c10.7-48.7 33.7-89.7 69-123s76.7-52.7 124-58c148-16.7 371.7-25 671-25s523 8.3 671 25c47.3 5.3 88.8 24.7 124.5 58s58.8 74.3 69.5 123c9.3 43.3 16.5 92.5 21.5 147.5s7.8 100.5 8.5 136.5 1 86 1 150z"/></svg>