<svg xmlns="http://www.w3.org/2000/svg" viewBox="0 0 345.867 79.746"><path d="M127.772 28.608v9.827c0 3.546.312 33.517.312 24.981-1.896-6.482-3.664-11.575-5.725-16.558l-7.289-18.251h-9.689v50.135h9.357V40.036c0-3.063-.29-8.863-.29 4.58 1.812 6.177 3.562 11.283 5.638 16.28l7.287 17.848h9.759V28.608h-9.36zm34.424 44.519h-.136c-1.334 4.48-3.874 6.552-8.086 6.618-6.885 0-8.425-3.543-8.425-9.826V41.042h8.689v25.804c0 1.669-.065 3.542.869 5.013.736.801 1.54 1.201 2.676 1.201 4.078 0 4.008-4.611 4.008-7.552V41.042h8.694v37.701h-8.289v-5.616zm26.001-28.207h.133c1.94-4.145 5.48-4.747 8.289-4.88 3.209-.067 7.485 1.338 8.02 4.88h.136c1.666-3.276 4.407-4.88 8.689-4.88 6.414 0 9.224 4.011 9.224 8.021v30.682H214V53.275c0-3.41-.337-6.751-4.147-6.551-3.743.2-4.412 2.807-4.412 7.219v24.8h-8.689V52.808c0-3.343-.267-6.151-4.279-6.083-4.075.068-4.276 3.076-4.276 7.219v24.8h-8.692V41.042h8.692v3.878zm42.442 9.091c-.402-8.892 4.146-13.971 12.701-13.971 12.099 0 13.37 6.283 13.37 16.578v5.08h-17.38v5.481c.067 4.946 1.938 5.881 4.543 5.881 3.211 0 4.145-2.337 4.013-7.085h8.689c.334 8.423-3.141 13.771-12.03 13.771-10.025 0-14.106-4.747-13.905-15.842v-9.893zm17.379 1.003v-3.277c-.065-3.809-1.067-5.013-4.545-5.013-4.343 0-4.143 3.342-4.143 6.752v1.538h8.688zm25.263-10.094h.136c1.939-4.347 5.816-4.88 7.821-4.88 4.947 0 8.958 2.875 8.689 9.625v29.079h-8.689V53.609c0-3.677-.404-6.082-3.676-6.216-3.276-.133-4.412 2.94-4.281 6.953v24.398h-8.688V41.042h8.688v3.878zm37.501 33.957c-5.146.602-12.364 1.068-12.364-5.949l-.066-42.248h8.754v10.361h10.769l-2.121 6.351h-8.647v23.396c.198 1.604 2.605 1.404 3.676 1.271v6.818zm26.866-.134c-.603-1.203-.671-2.541-.535-3.877h-.136c-1.003 1.538-2.136 2.808-3.476 3.609-1.268.803-2.671 1.27-4.143 1.27-7.02 0-10.093-3.543-10.093-11.297 0-8.624 6.083-10.694 12.899-13.503 3.677-1.538 5.016-3.209 4.279-6.283-.401-1.672-1.736-1.939-4.078-1.939-3.944 0-4.61 2.072-4.545 5.481h-8.29c-.067-7.151 2.274-12.165 13.172-12.165 11.827 0 12.561 6.216 12.428 11.162v22.26c0 1.807.269 3.543.736 5.282h-8.218zm-1.204-19.852c-2.138 1.47-4.746 2.94-7.02 4.812-1.269 1.07-1.47 2.94-1.47 4.545 0 2.876.869 4.812 4.078 4.812 5.148 0 4.211-6.483 4.412-10.092v-4.077z" fill="#221F1F"/><path fill="#231F20" d="M76.956 61.106a8.868 8.868 0 0 0-3.366.664l-8.349-14.904a8.887 8.887 0 0 0 4.058-7.459 8.896 8.896 0 0 0-8.897-8.898c-1.375 0-2.67.32-3.833.876L48.041 16.16a8.904 8.904 0 0 1-1.619.915l8.561 15.284a8.87 8.87 0 0 0-.783 13.423l-7.644 16.095a8.86 8.86 0 0 0-3.61-.77c-1.047 0-2.047.19-2.98.522L31.688 45.75a8.868 8.868 0 0 0 2.665-6.344 8.87 8.87 0 0 0-3.483-7.048l8.553-15.27a8.86 8.86 0 0 1-1.623-.909l-8.517 15.206a8.849 8.849 0 0 0-3.832-.876 8.896 8.896 0 0 0-8.897 8.898 8.883 8.883 0 0 0 4.057 7.459L12.263 61.77A8.896 8.896 0 0 0 0 70.002 8.896 8.896 0 0 0 8.897 78.9a8.896 8.896 0 0 0 5.005-16.251l8.369-14.941a8.861 8.861 0 0 0 3.18.596 8.845 8.845 0 0 0 4.75-1.382l8.086 15.511c-2.541 1.567-4.241 4.366-4.241 7.571 0 4.915 3.986 8.897 8.899 8.897s8.899-3.981 8.899-8.897a8.877 8.877 0 0 0-3.675-7.192l7.533-15.86a8.853 8.853 0 0 0 4.7 1.352 8.83 8.83 0 0 0 3.179-.596l8.369 14.941a8.884 8.884 0 0 0-3.891 7.353 8.896 8.896 0 0 0 8.897 8.898 8.896 8.896 0 0 0 8.897-8.898 8.896 8.896 0 0 0-8.897-8.896z"/><circle fill="#00A1DF" cx="42.927" cy="8.897" r="8.899"/></svg>