<svg id="Ebene_3" data-name="Ebene 3" xmlns="http://www.w3.org/2000/svg" viewBox="0 0 784.68 789.82"><defs><style>.cls-1{fill:#1aa0db}</style></defs><title>brain</title><path class="cls-1" d="M784.57 369.36a1.29 1.29 0 0 0 0-.33l-1.87-23.44a1.36 1.36 0 0 0-.06-.22 1.27 1.27 0 0 0 0-.19L777.82 333a1.36 1.36 0 0 0 .23-.81l-1.4-22a1.12 1.12 0 0 0 0-.2 1.47 1.47 0 0 0 0-.22L766.08 283a1.38 1.38 0 0 0-.63-.69l-5.64-19.17a1.37 1.37 0 0 0 0-.2 1.41 1.41 0 0 0 0-.25 1.32 1.32 0 0 0-.09-.27.79.79 0 0 0 0-.08l-11.1-19.82-4.17-19.2v-.1l-5.82-19.4v-.17l-7.35-16.33v-.15l-11-18.38-9.8-14.29-8.56-13a1.39 1.39 0 0 0-.92-.6L689.53 128a1.37 1.37 0 0 0-.8-.43l-23.94-22.17-.09-.12a1.35 1.35 0 0 0-.2-.18l-.19-.15-41.22-38.15-.18-.11-.16-.12-10.82-5.27a1.36 1.36 0 0 0-.56-.27l-14.44-7a1.35 1.35 0 0 0-1.13-.55l-14.48-7.08a.1.1 0 0 1-.09-.08 1.31 1.31 0 0 0-.22-.19l-.21-.13-.26-.08h-.26l-29.9-14.59a1.26 1.26 0 0 0-1.19-.65h-.1l-14.76-7.18-.06-.1a1.37 1.37 0 0 0-1-.64L520 20h-.18a1.29 1.29 0 0 0-.29 0 1.35 1.35 0 0 0-.28.08H519l-.1.06-14.75-2h-.09a1.37 1.37 0 0 0-.59 0L486 16a1.35 1.35 0 0 0-.39 0l-30.47-7.55h-.55l-10.36-2.13a1.38 1.38 0 0 0-.83-.17h-.22a1.37 1.37 0 0 0-.87.24l-17.71 4.52a1.35 1.35 0 0 0-.6-.31l-25.87-5.26a1.37 1.37 0 0 0-.88.13L377.53 1.3a1.38 1.38 0 0 0-1.15.29L352 .07a1.43 1.43 0 0 0-.48-.07h-.66a1.42 1.42 0 0 0-.44.06l-20.67 1.2h-.15L312.46 4.2l-1.18.14a1.38 1.38 0 0 0-1.21.14l-18.92 2.23H291l-28.5 7.15h-.06L223 27.29a1.38 1.38 0 0 0-.72.6l-11.52 5h-.61l-.24.08a1.39 1.39 0 0 0-.26.11 1.44 1.44 0 0 0-.21.18l-.16.14a1.43 1.43 0 0 0-.11.22l-50.43 22a1.39 1.39 0 0 0-.62.08l-17.7 7.1-15.07 7.31h-.1l-12.8 7.69-11.92 7.65-14.84 11h-.06q-.16.18-.33.34l-9.61 14.16a1.36 1.36 0 0 0-.22.88L66 123.1l-.12.06h-.14l-.07.06h-.1l-.14.14a1.38 1.38 0 0 0-.17.18l-.07.08-10.72 16.83-.23.11a1.42 1.42 0 0 0-.24.17l-.1.07-.08.13-.1.11-7.65 12.82a1.4 1.4 0 0 0-.11.31 1.57 1.57 0 0 0-.06.2 1.24 1.24 0 0 0 0 .22l-11.84 14.59a1.37 1.37 0 0 0-.23 1.28l-9.54 11a1.35 1.35 0 0 0-.47 1l-.09 19v.12l-6 15.65L6.8 235l-.12.11-.09.12a1.36 1.36 0 0 0-.17.23 1.28 1.28 0 0 0-.11.25 1.56 1.56 0 0 1-.06.15l-4 18.28a1.39 1.39 0 0 0-.51 1L0 277.86a.52.52 0 0 0 0 .14v.06L2.58 302a1.37 1.37 0 0 0 .56 1l4.25 29.7a1.4 1.4 0 0 0 .18 1.55l.06.07 3.82 26.75a1.08 1.08 0 0 0 0 .13 1.34 1.34 0 0 0 .07.19l.09.18v.06h.06a.11.11 0 0 0 .05.09l30.77 34 .29.28.06.06h.43l34.52 7H78l92.49 8.32L186.71 447a1.33 1.33 0 0 0 .22.28v.06L209.2 467h.05l.19.11.08.06h.24L256 478.85l34 8.4h.59l43.41-8.18 22.35 50.29.07.12.08.13a1.34 1.34 0 0 0 .31.31l43.69 29.41v52.24a1.42 1.42 0 0 0 0 .28 1.45 1.45 0 0 0 .1.26v.1l43.4 68.51 21.75 60.07v.07l.07.11.09.14.17.16v.06l62.3 48.26h.07l.21.12h.18a1.46 1.46 0 0 0 .39.06h.18a1.37 1.37 0 0 0 .39-.11h.07l.39-.34.09-.17a1.29 1.29 0 0 0 .12-.23 1.28 1.28 0 0 0 0-.25 1.33 1.33 0 0 0 0-.19l-4.06-53.91v-73.81a.43.43 0 0 0 0-.06L521 599l30.13 5h.5l24.7-5.24h.39l29.19-16.21 27.17-13.71h.17l23-16 22.54-16 .15-.14 14-15.31.07-.1.06-.08 14-24 8.53-16.66a1.35 1.35 0 0 0 .06-.21 1.5 1.5 0 0 0 .08-.24l1.59-13.07a1.23 1.23 0 0 0 .1-.25 1.54 1.54 0 0 0 .08-.25 1.42 1.42 0 0 0 0-.27 1.49 1.49 0 0 0 0-.26v-.31l16.17-8.68a1.43 1.43 0 0 0 .43-.07l17.15-6.12h.07a1.33 1.33 0 0 0 .35-.21l.11-.1a1.33 1.33 0 0 0 .21-.28 1.11 1.11 0 0 0 .07-.13v-.06a1.27 1.27 0 0 0 0-.2 1.3 1.3 0 0 0 0-.16 1.37 1.37 0 0 0 .93-.68l12.25-15.11v-.07a.3.3 0 0 1 .11-.14l10.07-18.37a1.15 1.15 0 0 0 0-.13 1.31 1.31 0 0 0 .11-.29l4.16-22.44a1.36 1.36 0 0 0-.1-.75l4.63-20.85a1.38 1.38 0 0 0 .34-1.49zM403.38 566.73l36.32 101.93-36.32-57.56v-44.37zm-44.62-38.88l-18.5-41.62 54.47 65.83zM7.42 313.15l13 31.81-10.14-11.84zM541 578l6.32-6.24 8 7.7-4.85 18.2zm-42.91 151.8l25.16 5.72-10.32 20.81zM193.64 44.7l10.59 7.06-12.34 4.89zm49.72-19.27l11.24 6.34L241.47 37zm47.88-14l8.45 6.7-15.44 4.37zM320.43 17L306 16.46l4.86-8.78zm135.83.3l-10.81.1 8.78-5.57zm48.83 11.19l-8.77 5.67 6.94-11.74zM749.8 414.24l5.55-18.83 9.92 14.36zM508.64 694.55l-5.08-11.17 17.55-16.74zm15.25-27.26v60.8l-13.71-30.14zm-22 19.15l5.23 11.56-9.24 20.67zm6.79 14.92l14.19 31.2-25.55-5.8zm-6-21l2.84-22.85a1.33 1.33 0 0 0 .14-.2.75.75 0 0 0 .21-.49.73.73 0 0 0 0-.52 1.37 1.37 0 0 0 0-.29l-.09-.21 16.93 5.54zM110.09 97.83l4.7 11.08-17.72-1.48zm498.37-17.16L600.29 92l-15.88-22zm20.88 17.09l-26.89-4 8.37-11.63zm29.54 24.89l-13.33 21.21-9.36-40.34zm16.93 14.27l-27.72 8.15L661 124.48zm90.6 178.81l-3.34 17.68-12.17-12.5zm-292.8 264.5l10.83-7-1.24 29.62zM26.33 292.08l-1.67-14h10.78l-2.29 5.39a1.43 1.43 0 0 0-.3.45zm25.74-71.53L44 229l-5-9.08zM73 156.3l-8.72 8.1-.28-12.79zm107.13-74.56l-16.54 5.72 6.46-16.91zM309.3 32.82l-11.54-.41 4.48-10.88zm17.52.62L315.06 33l7.32-11.71zm17.18.62l-12.35-.44 8.19-13.34zm71.12 2.57l7.82-5 1.2 6.49-11-.13zm80.44 22.19L470.6 53l19.74-12zM515.08 62l-14.84-1.89 10.68-13.78zm172.75 96.11l-17.2 2.15 8.28-18.2zm13.24 23.8l-16.34-3.74 5.35-16zm28.74 81l-28.09-9L725 239.65zM365.28 454.17l4.5-2.41L384 464l-43.52 10.71zM82.75 151.11l1.56-1.11-1.52 3.5-3.32.65zm469.72-71.67l5.2 5a1.35 1.35 0 0 0 .39.6l1.24 1 2.38 3.46L548 94.82zM683 427.82l-31 5.93 24.49-18.3 7.07 10.55zM524.54 546.38l-12.14-9.08 18.68-12.11zm-328.2-183.7l-13.78-7.35 27.28-5.23zm-140.9-39.33l5.68 7.36-4.59 3.15zm21.4-165.82l4-.78a.18.18 0 0 1-.06.13l-.32 1.3-4 1.85zM132 106.77l-2 2.23 1-3.19zM248.58 64.2l6 1.78-7.23 3zm16-7.72l-2.84 2.9 1.07-3.4zm127-10.78L387 43.58l.6-1.84zm50.77-2.12L444 60.16l-13.51-10.25zm293 246.52v8.53l-22.7-18.48L731 268.69zm-425 99.62l-.12-.06-.24-.12h-.22a1.49 1.49 0 0 0-.32 0h-.11l-16.81-3.15h-.07l-.24-.1-.26-.06a1.28 1.28 0 0 0-.28 0h-.15l-15.11-2.83 35.26-30.12 10.92 38.56-.3.16zm-143.81-51.56l16.71-27.7-6.93 41zm-65.85-197.37l3.43 5.29h-6zM95 146.07h-5.07l7.71-5.41zM118.3 131l9.57 7.48-18.3 6.93zm20-18.21a1.32 1.32 0 0 0 .95 0l.13-.06a1.4 1.4 0 0 0 .31-.21l13.8-2.8 2 21.54-25-16.88zm91.76-33.59l-7.16 17.44h-.17l-8-11.08zm45.6-18.93l-4.26 25.09L248 71.74zm20.72-8.6l16 .46-15.15 22.73-18-16zm210.87 40.86l-2.44 7.59a1.4 1.4 0 0 0-.26.49l-9.44-1.82zM578 113.22l-24.71-1.37 10.42-19.35zm130.89 236.6l17.56-13.24.82-.59.35 18.35zm-446.44-4.92l46.71 6.8-35.5 30.3zm-49.15 1.56l-6.06-10.15 12.37-8.67-6.29 18.82zm-75.06-11.33l-5.67-14.27 9.78 6.19zm-27.6 1.87l-8.95-23.08 24.87 4.88zM244 97.12l-18.14-.41 7-17zm34.21-35.38l17 15.08-21 9.78-.09-.12zm74.08-7.15l10.86 14.15L341.73 66zm45.89-3.88l8.53 5.88h-8.24zm46.36 14.57L447 87l-18.57-14.5zM577.82 116L556 135.8l-4.49-21.24zm12.44 15l3.16 9.88-35.71-2.88 23-20.85zM724.8 334.31l-6.5 4.9 3.93-6.68 3.27 1.27zm-40.94 48.28l4.33 3-2.27 2.07zm-327.14-5.92l.21 7.47-12.17-1.06zm2.82.57l12.07 8.18-11.87-1zm14.93 6.76L363 376.23l11.33 1.19zm-11.66-10.58l11.43-6.13.1 7.34zm-154.19-48.8l11.38-4.88.34 3zM82.85 235.1l.15-.1.12-.1.08-.11.07-.1v-.07l7.22-14.12 2.71 27.06-.29.29-.09.05L74 240.78zm107.78-87.21L172.14 134l15.71-14zm129.07-74.5l4.41 18.15-22.37-13.87zM551.48 128l2 9.4-5.34-3.17zm53.67 49.57l-42.36-7.3 32.09-24.79zM628.46 226l5.3 25.92L615 238.2zm27.91-17.22l6.58 5.77-9.49 2.77zm-17 166.95l.06-.2 23.92-14-2.87 20.54zm-20.15 55.82l.21-.14 2.65 4.43-14.92.47zm-20-.45l3.91-2.46-1.13 5.11zm-206.78-56L381 367.16l11.13 1.06zm3.54 2a1.37 1.37 0 0 0-.69-1.11l-.42-7.48 14.54 1.39zM250 293.27l.47-.16a1.4 1.4 0 0 0 .92 1.75l8.11 2.51-7.5 3.84zM144.4 307.2l8.72-7.87-4.22 13.49zm-24.83-104l-.17.06h-.18l-2.55 1 .67-2.72 5.82 1.14zm-11.93-3.5l7 1.36-.79 3.21zm83.38-48a1.4 1.4 0 0 0 .13.46l-8 5.84-9.44-19.29zm11.81-9.06l1-.52-.86.79zm57.91-27.4h-22.93l9.42-14.35zm25.18-8.24l-19.81 7.37 7.37-24zm139.22-32.74l-4.31 25.49-5.56-20.52zm241.45 216.56l-2.34 3.08-2-6.35 4.83-.43zm18.33 10l4.24 17-16.64-3.07zm24.3 9.94l2.29 15.14-16.34-6.54zm-20.48 44.88h-.52l-9.51-14.94 16.14 1.3zM313.93 297l-8.81.78 9.11-6 3.23 4.29zM251 290h-.3l-.6.21.78-28.9L302 284zm-96.45-151.64L157 137v5.27l-3.58.28 1.15-4.14a.06.06 0 0 1-.02-.05zM366.41 71.8l5.31 6.87-9.6 5.33zm46.46 9.32l5.49 20.24L399 90.21zm51.34 48.38l3.85 5-7.26 4.79zm172.35 128.86l15.2 27.76-42.43 9.88zm20.28 21.43l1.67 5.27-2.32.21zm3 .13l5.39 4.55-3.83.34zm-12.69 68.73l12.5-14.5 14.2 6.15-9.06 17.17zm-29.06 12.11l25.16-9.87-6.15 22.71zM431.28 333a.2.2 0 0 1 .06-.14l.08-.14 44.87-13.42-22.22 55.49zM143 272a1.47 1.47 0 0 0-.25.21l3.82-14.21 6.64 8.39zm12-3.36l3.7 4.67-12.68.24zm-40.23-7.54a.74.74 0 0 0-.1-.11l-.37-.27 6.59-21.65 21.58 15.51zM131.9 200l.38-1.09 5.66 1.91-5.6.72v-.05a1.4 1.4 0 0 0-.44-1.49zm18.39-44.68l10.1 19.28-19 2.44zm226.62-66.17l-2.71 9.53-4.65-3.88zM367.34 93l-4.74-4 11.4-1.12zm88.89 51l-8.08 23.19L425 132.73zm102 47.45l-5.48 5-5-8.67zm-10.36-6.56l5.13-4.33 4.59 7.7zm7.3-6.16l3.27-2.76.89 9.74zm-1.45-2.44l-4.63-7.78 8.15 4.81zm-4.77-11.11l3-2.35 3.58 6.22zm-2.76-1.38l.07-10.8 4.26 7.4zm3.34-10.8l5.74 3.53-2.55 2zm-3.39 16l5.39 9.06-5.48 4.62zM545 188.63l5.62 9.7-9.5 8.71zm46.74 64.69a1.39 1.39 0 0 0-.32.42l-3.86 3.45L587 253l8.36-2.92zm77.82 64.49l4.16 19.39-13.2-5.72zm-205.15 54.27l10.3-9-1.14 3.68zM310.16 283l-.49.06-1.49-38.73L348 271.6zm-172-88.25l3.85 2-.35 1.3zm.92-2.67l4.23-.27-.57 2.13zm49.18-28.8l-3.81.88-.23-2.08zM628.12 317l2 3.39-6.44 1.31zm-6.6 8l10.16-2 3.35 5.58zm11 5.75L623 333.2l-2-5.41zm-15-2.48l.47-.5 2.24 6.09-8.53 2.14zm5.11 18l-9.28 2.17-2.92-7.07zm-10.79-7.34l9.37-2.38 2.65 7.2zm-4.32 2.72l3.08 7.44-10.51 2.46zm-7 12.69l11.21-2.63 2.32 5.62zm11 5.29l-3.26 2-5.67-4zm3-8.56l7.75-1.82-5.5 7.24zm12.24-7.73l-2.75-7.48 10.45-2.65zm7.89-20.94l9.49-1.93-6 7.83zm-1.65-2.55l-1.88-3.14 8.93 1.71zm-17.62 6.61v.07h-.06l-18 23.93 8.66-49.6 20.8 13.46zM603 301.54l-8.8 50.75L567.56 325zM511.85 349l50-21.25-16.06 42.82zM498 351l-6.68-2.43 8-7zm-76.21-95.09l31.54-24.29 8 28.35zm-253-75.52l-4.14.75-.4-3zm-1.33-3.76l4.12-.6.59 2.88zm-5.56 5l-5.6 1 5.15-4.3zm-4.8 3.72l5.18-.94.43 3.13zm.28 3.11l-3.12.26.08-1.44zm-5.81-1.86l-.1 2.4-3 .25zm-.29 5.18l-.23 4.05-2.64-3.83zm2.82-.24l6.66-.55-7 6zm11.38-4.54l-.42-3.06 5.07-.92zm9.52-8.2l-.65-3.18 5.24-.76zm9.78-11.8l5.58-1.28-5.23 4.48zm-2.39 3.87l-5.49-2.06 5.14-1.18zm-4.19 1.42l-4.39.63-.5-2.47zm11.12 57.41l7.43-4.61-1.36 5.45zM178 205.49l6.38-30L200 188.87zm22.72-13.65l-3.78 28.8-18.13-12.24zm-5.62 30.93l-10.1 6.31a1.36 1.36 0 0 0-1.34.83l-13.66 8.5 6.48-28.25zM183 233.56l-.3 2.17-6.64 2.14zm3-1.53l5.69.79-6.08 2zm13.8-12.22l3.63-27.67 13.65 16.94zm133-82.88h.2a1.36 1.36 0 0 0 .47-.09l.13-.06a1.39 1.39 0 0 0 .28-.18l.11-.1a1.39 1.39 0 0 0 .2-.27l11.56-5.43-24.05 28.63-6.06-14.43zm22.66-28.51l5.9 4.52-7.36 8.74zm85.3 77.23l-6.7-2.95 11.23-8.86v.06zm5.55-6.59l1.94 9.89-4.92-2.17zm-29.5 38.1l-.08.09-.1.08-6 6.91 2.37-10.47 6.07 1.54zm-104.1-70.79a1.37 1.37 0 0 0 .29 0l5.49 12.81-18.25-6.92zm120.8 54.49l-5.36-2 3-9.41zm-8-2.92l-7.36-2.69 11-8.65zM420 212.63l-6.27-1.63 2.27-10.19zm-1.92-14.46l6.69 2.44-2.85 8.95zM411 210.35l-8.69-2.2.62-.81 10.64-8.34zm-7.94.88l7.33 1.86-1.84 8.23zm-15.93 12.38h-.06a1.33 1.33 0 0 0-.35.17l-.11.05a1.44 1.44 0 0 0-.24.27l-.12.15a1.44 1.44 0 0 0-.08.24 1.48 1.48 0 0 0-.08.28v.14l-8.45 11.18-16.36-44.42L399 207.95zm-75.45-.4l2.07 6.85-2.91-1.26zm-3.5 4.44l-4-1.75 5.21-6zm5-9.21l4.4 1.43-1.66 7.63zm0-2.94l7.1-8.16-2.12 9.78zm10.14-10l6.11.89-2.53 9.61zm.9-2.7l8.87-10.2-2.94 11.06zm11.5-9.19L340 205.1l-7-1zm1.64-3.65l5.84.75-1.56 10.9zm.44-2.77l7.06-8.11-1.25 8.92zm9.83-7.72l7.86 10-9.12-1.18zm10.29 8.53l-9.11-11.6 11.19-1.62zm-8-14.59l4.38-4.29 3.87 3zm10.68-2.88l-4.29-3.38 5.66-5.54zm-1.11-10.41l-5.39 5.28-3.39-2.68zm-8.73-.34l5.39-7.63 5.31 4.47zm12.33-5.44l-5.32-4.48 7.75-10.86zm-7.47-6.29l-3.37-2.84 9.65-6.06zm-4.5-.13l2.88 2.42-4 5.72zm-2.4 16.81l3.35 2.64-4.33 4.24zm-27.2 36.84l1.59-38.15L343.85 176zm-1.25-37.28l-1.44 34.58-29.33-29.3zm2 46.87l2.78 8.16-4.2-1.35zm9.92-4.41l7.16 1-10.08 10zM346 191.08l9.19 1.19-10.9 10.73zm17.08-1.57l32.09-23.88a1.37 1.37 0 0 0 .38.09l3.64 39.28zm-2.25-1.81l2-13a1.31 1.31 0 0 0 .32-2.09l2.22-14.38a.1.1 0 0 0 .09-.07l.07-.12a1.29 1.29 0 0 0 .14-.25 1.23 1.23 0 0 0 .08-.25 1.19 1.19 0 0 0 0-.26 1.22 1.22 0 0 0 0-.28 1.14 1.14 0 0 0 0-.14.14.14 0 0 0-.06-.11 1.18 1.18 0 0 0 0-.15l2.43-15.72 25.47 22.47zm-7.21-46.58l6.68-8.63 3.66 2.14zm-1-3.28l1.3-9.08 4 2.3zm2.76-11.46l9.61-4.52-5.4 7zm-6.53 18.09a1.36 1.36 0 0 0-.15 1l-4 27.76-20.44-12.41L351 129.05zM297.24 154l20.76 7.89-28.69 4.9zM277 181.43l-1.66-9.31 9.43-3.22zm.25 4.91a1.36 1.36 0 0 0 .35-.57l9.26-14.94 31.74 31.77-53.42 3.14zm41 19.09l-16.88 19.4-34.93-16.35zm-10.48 25.09l-.67 4.48-2.47-5.86zm2.66 1.15l3.36 1.45-4.2 4.15zm9.82-10.92l4.58 1.49-6.24 6.16zm38.4-28l16.23 44.06-45.5-15.17zM376.8 242l-1.06 10.47-8.35 2zm2.77.44l6.78 7.48-7.73 1.85zm1.82-2.16l5.31.39.21 5.7zm-1.11-2.89l6-7.95.31 8.41zm8.81-7.88l6.76 9-6.45-.51zm1.33-2.89l7.55.51-.74 8.57zm.11-2.8l8.71-11.53-1 12zm11.3-9l5.51 10.13-6.34-.43zm25.58-13.21l6 2.18-9 7.34zm8.59-3.21l-2.7-13 6.6 2.9zm-5-16.72h-.1a1.27 1.27 0 0 0-.66.44 1.4 1.4 0 0 0-.16.23L402 204.55l-3.72-40.22 46.17 6.67zm-35.14-64l-1.45 42.79-25.85-22.81v-.07zm-29.4 15.22l-4.46-2.64 6-7.81zm3-17.34l-3.92-3 7.23-8.62zm-1.89 2.07l-10.38 4.88 6.55-7.81zm-56.23 25.09l-5.91-3 5.57-8.42zm-1.85 2.2L298.57 150l5.25-7.94zM297.21 147l-.51-8.51 4.61 2.33zm-2.65 2.57l-6.1-4.07 5.48-6.28zm-2.28 1.84l-9.58.68 3.9-4.47zm-.28 2.79l-7.45 5.42L281 155zm-.6 3.9l-3.56 5.74-1.57-2zm-5.73 7.51l-8.66 3 7-5.09zm-11 18.81l-4.67 2.45 3.1-11.32zM269 190.5a1.38 1.38 0 0 0 .32-.12l3.14-1.64-5.33 8.59zM221.66 209l17.16-32.35 22.11 28.28zm42.19 1.36L299 226.77l-47 29.77zm10 35.64l-1.65 3.29-3.8.16zm3.85-1.44l.2.08-.46.44zm1.94-2.22l2.07-1.31-1.59 1.51zm8.42-3.48l-1.15 6.49-4-1.64zm3.29-2.53l2.34.85-3.32 4.73zm1.58-2.41l5.48-3.47-3 4.35zm9.09-3.74l3.49 8.29-7.42-2.68zm7.22 11.38l17.18-17 21.93 43.86-39.15-26.8zm20.35-16.87l45.34 15.11-22.73 30.1zm45.85 30.7l-.66 6.49-6.68-4.73zm2.06 7.46l.83-8.15 7.82-1.87zm12.3-14.26l-.29-7.75 6.56.48zm10.2-11.76l.82-9.54 7 .47zm11.48-8.22l39.64 1.25-31.71 24.42zm103.19 8.26l-2.57-.5 1.4-4.91zm0 2.85l-5.77 7.85 2.43-8.5zM563 324.24l-50.34 21.38 8.73-12.43a1.37 1.37 0 0 0 .75-1.07l22.38-31.87 18.48 24a.05.05 0 0 0 0-.01zm-57.48 10l.46 2.69-2.86 1.19zm45.6-48.66l-6.46 1.11-.53-3.21zm4.56-1.56l-8.48-2.54 8.48-2.83V284zm-8.31-5.55l8.31-7.28v4.51zm-6 5.28l.56 3.41-5.55 1zM521 328.85l-1.36-3.32 5.48-2.56zm-2.5 1.29l-7.89-.39 6.49-3zm.59-13.14l6.42-3.21 1.43 3.93zm5.29 3.29l-5.79 2.7-1.37-3.36zm5.18-3.57l-1.56-4.2 6.9-3.47zm-3.38-12.53l7.91-2.8 1.81 3.93zm5.38 3.44l-4.49 2.24-1-2.89zm6.86-3.52l-1.68-3.66 5.66-2zm-2.86-6.21l-1.85-4 6.86 2.27zm-.82-6.64l7.6-1.31.66 4zm-4.17 2.48l2.34 5.1-7 2.49zm-7.78 12.57l1.76 4.83-6.88 3.44zm-8.47 13.68l1.72 4.19L510 327zM508 332.43l7.77.38-7.19 3zm8.17 3.24l-6.17 8.71-1-5.76zm29.71-41.3l-.81-5L553 288zm12.55-16.68l9.82-3.27-9.82 8.76v-5.49zm0-3v-5.16l8.51 2.32zM532 288.16l13.18-45.38 24.33 12.51zm-3.18.93l-31.53-27 44.85-18.88zm-22.34-43.47l-.48-7.56 2.45.47zm-2.52 5l-1.8-1.92 1.45-4.36zm-.67 3.38l-3.55 1.91 1.4-4.2zm-4.89-2.92v-2.29l.56.6zm-2.8 5.43l-3.2-1.9 3.2-4.23v6.12zm-5.6-3.34l-2.08-1.24a1.33 1.33 0 0 0-.2-.53l5.78-2.85zm-7.9 10.52l-3.72-2.32 6-5.38zm5.48-8.7l.72.43-1.38 1.82zm-11.67 4.84l-2.34-1.46 8.79-4.33zm-7.91 2.95l-4.36 7.43-2.85-3.83zm-8.91 1.33l-1.25-1.68 3.83.39zm13.25-3.19l1.39.86-4 3.59zM454.75 263l1.79 2.4-6.35 3.18zm3.49 4.68l2.75 3.68h-10.11zm18-4.34l3.52 2.19-10 3.58zm10-.13l-.34.12 4.88-6.46 3.45 2zm9.59 1.26l31.74 27.21-46.66 22.82zm30.43 31l-25.57 41.33-.13.12L481 317.56zm-19.76 44.3l.74 4.3-3.24-3.37zm57.11-19.35l-17.36-22.5 24-21.39zm7.4-50.28l-8.06-2.2 7.72-2.32zm-8.33-5l7.47-6.55.31 4.21zm10.32-6.68l7.28 1.42-7 2.11zm4.54-2l6.93-2.43.47 3.87zm-2.58-2.06l8.63-7.57.53 4.36zm11.3-8.4l7.28 1.92-6.75 2.36zm-14.42 7.41l-23.24-12 47.49-9.41zm-65 1.62l11.34-15.43v-.33a1.3 1.3 0 0 0 .06-.16l3.75-20 19.75 21.21zm9.84-21.85l-1.56-7.18 3.7-4.37zm-7.4 2.66l-2.11-.41 3.35-4zM500 246.37l-1.09-1.16 2.44-2.88zm-35.74 13.48L456 230.52l37.42 15zm-51.13-34l5.68-6.59L436.27 205l15.5 22.06zm29.33-36.45l5.57 2.45-9.52 7.75zm8.83-.2l-3-15 .7-1.81 12.52 8.47zm-51.78-27.52l22.12-29 24.07 35.73zm19.36-31.49a1.43 1.43 0 0 0 .12.34 1.4 1.4 0 0 0 .41.43l-22 28.91-.1-.05 1.45-42.8zm-24-15.26l-25.65 18.72 2.39-15.47 4.28-15.05zm-31.56-4.13l-6.81-5.21 13.28-2.59zm-12.18 13.09l-5.64-3.27 7-9.42zm-1.73 2.23l-12.28 5.77 6.69-9zm-14.58 4.17l.53-12.29 6 3.46zm-3 3.23l-6.92-2.9 7.5-9.5zm-2.47 2l-13.22 6.21 7-8.83zM314 139.9l-.33-11 6.76 2.83zm-11.14-1.49l-5.85-3 11.63-5.79zm-16.75 5.48l-2.58-1.72 7.22-3.6zm-4.47.38l2.62 1.74-4.51 5.17zm-3.27 11.92l3.94 5.06-6.65 4.84zm-15.64 46.47l-21.47-27.46 29.81-3zm-43.37 4.69l-14.22-17.65 30.38-12.82zm-18.09-21.09l-15.36-13.1 17.25-14.76zm-19.54-21.48l-4.73 1.08 4.45-3.24zm-11.2 6l.51 2.49-4.23.61zm-24.23 16.59l-3.63-7.67 15.13-1.94zm-.45 5.88l2.43 3.48-3-1.5zm35.31-16l-6.26 29.36-20.44-6.5zm-14.34 62.21l-15.16-15.16 21.52-12.55zm15.48-.63l-1 6.88-8.43-3.85zm3-1l6.42-2.07-7.16 7.37zm14.91-14.94l10.12-6.29-11.51 11.85zm60.66-15.2a1.36 1.36 0 0 0 .46 1.34l-12.24 47.42-26.85-44.74zm3.39 44.31a1.38 1.38 0 0 0 .83.3h.06l3.09-.13-8.75 2.85zm16.51-6.28l3.2 1.32-7 2.28zm15.69-7.65l7.13 2.58L292 244.5zm66.45 22.27l.55 6.35a1.36 1.36 0 0 0 .08.27l-1 .2h-.12l-6.1 1.84zm3.34 6l-.67-7.71 8.55 6zm42.87-36l7.8 25.29-36.18 7.61zm-9.67 37.17l-7.84 5.4 3.07-8.15zm-2.56-4.81l13.92-2.93-8.81 6zm18.11-2.29l-5 10.26-5.34-3.21zm3.43-.65l3.5 5.66-8.18 4zm2.54-1.21l12.51 1.28-9 4.36zm12.21 4.54l-4.48 6.25h-.12a1.36 1.36 0 0 0-.61.49l-2-3.28zm4.54-1.53l1.91 3.71-6.24 2.33zm2.63-1l9.37 1-7.44 2.78zm9.64 3.85l-4.69 5.73-1.72-3.34zm13.86 9.67a1.38 1.38 0 0 0 .38-.06h.06l23-8.27h.14l6-3.23L478.15 314l-27.68-39.84h13.31zm34.59 64.58L477 357.34l-.17.07a1.26 1.26 0 0 0-.22.18.86.86 0 0 0-.27.33l-19.25 16.81 22.06-55.08zm-11.82 14l-1.19 6.1-4.65-1zm-8 7.5l4.57 1-6 3.45zm11.12-9.16l6.79 2.47-8.19 4.76zm12.26-8.36l4.63 4.91-5.81 3.37zm8.13 8.59l34.12 21.65-42.9 16.76zM548.66 371l16.62-44.32 27.92 28.6zm56.89-7.76l-10.29 6.3 1.74-12.33zM608 365l3.48 2.44-11.8 2.66zm-15.51 23.89l1.78-12.64 6.52 4.17zm10.76-6.89l4.59 2.94-11.33 3.93zm-7.48-8.11l14.78-3.33-7.71 7.86zm14.88-10.45l3.49-2.14a1.4 1.4 0 0 0 .38.33l-.67 4.06zm26.83-29.63l5.22 14.35-23 9zm2.2-2.13l16.85 1.82-11.39 13.21zm1.44-2.66l6.73-8.85 8.29 10.47zm-7.21-14.58l8.55-2.4 2.35 4.48zm-.77-2.69l5.88-6.25 2.11 4zm8.89-6.55l7.7 1.89-5.84 1.64zm3.88-1.93l6.16-1.51 1.47 3.39zM643.2 301l5.86-6.24 1.94 4.34zm8.83-6.43l7.37 2.43-5.69 1.39zm0-3l2.55-2.72 4.55 5.08zm-3.53-.33l-19.71 21-20.49-13.16 42-9.74zM566 322.62l6.8-45.16 29.65 21.09zm7.67-53.07l-.35-4.81 8.65-2.59zm27.53-28.33l5.74-1.29-6 5.24zm-3.08 4.93l-8.71-2.29 9-2zm-7.89-5.34l8.63-7.56-.32 5.7zm-43.64-1.94l12.49-29.39 37 19.64zm-4.2-29.23l9.61-8.84 3.21 5.55zm-4.17 4a1.4 1.4 0 0 0 .46.08h.25l16.61-3-11.72 27.59-19.6-21zm-41.73 30.06v-.08l-1.36-42.42 24.55 15.11zm-4.09-41.8l1.3 40.71L457.31 228zm-54 1.33l22.84-18.6-8 39.78zm11.74-33.46l2.93-8.42 7.27 15.33zm-31.39-43l-18-11.74 18.32-7.85zM398 113.24a1.37 1.37 0 0 0-.63-.2l1.13-19.89 19.79 11.42zm-2.31-20.36l-1.06 18.65L377.79 101zm-24.43 7L360.1 102l7.17-5.5zM343 119.2l-6.17-3.58 14-7zm-20.78 10.28l-7.18-3 15.74-7.84zm-40 10.21l6.78-30.14 20.4 16.6zm-10.35 29.64l-28.52 2.85 35.13-26.95zM204 187.13l2-29.13 29.37 15.93zM195.8 161l-.37-2.71 5.23-1.45zm-2.72.77l-4.9-1.47 4.54-1.26zM170.64 167l-7.6 6.35-10.04-19.2 26 6.85zm-30.7 13.43l4 8.47-7.7.49zm-9.41 14.9l-6.9-2.33 7.88-.5zm3.27-.9l3.38 3.14-4-1.35zM144 200l.55-2.05 3.11 1.58zm28.6 8.75l-22 12.84 1.88-19.25zm-22.54 17.88l14.83 14.83-17.64 11zm-.69 30.37l17.78 1.72-11.46 6.28zm20.1-.86l-15.24-1.47 14.42-3.37zm-16.42-4.07l14-8.67h.31l.86 5zm17.12-8.47l6.47 3L171 248zm14.08 3.71l33.94-34.92a1.32 1.32 0 0 0 1.18 0l27 45.06zm104 1.25h.17l.12-.06 16.77-5.47 1.54 40-52.66-23.32zm36.23 32.95l-9.61 6.35-2.12-2.82zm.63 2.94l-5.48 9.75-3.08-4.09zm5.44-4l4.63 3.2-10.89 8zm2.62-1.59l14.6-4.39L337.6 282zm16.33-2.2l-4 10.74-5.5-3.73zm4-2.7l4.12 4-8 6.46zm2.1-1.86l7.54-2.27 6.26-1.32-9.59 7.73zm16.48-2.1l-6.48 12-3.78-3.72zm4.23-1.94l3.57 3.54-8.88 6.3zm2.49-1.47l11.71-2.47-8.28 5.88zm11.86.86l-3 7.93-3.41-3.38zm11.34 1.82l4.91 3-15 3.91zm21.29-1.37l2.12 3.44h-9.23zm17.52 0l1.8 3.49H431.5zm35.56 48.53l-44.57 13.28 16.44-53.81zM475 369.18a1.36 1.36 0 0 0 .76-.44l31.74-18.44-9.24 40.42L458.11 379zm71 6v52l-43.76-34.88zm48.12-17.32l-4.82 34.21-3.47 24.6L549 373.82zm-3.84 47.3l1.5-10.61 5.53 3.31zm9.49-5.83l5.9 3.53-12.12 2.93zm-5.77-6.67l12.56-4.36-7.25 7.54zm17-9.14l-5.67-3.63 7.53-7.67zM690.48 323l4.17 16.23-16.79-1.36zm-14.26 12.5l-3.85-18 16.5 3zm-17.6-6.31l-8.4-10.61 17.64-3.25zm-11-13.42l-2.4-4.58 7.47-2.1zm8.67-11.41l-1.45-3.36 4.92-1.21zm1.2-16.4l1.88-.17 1.11 3.5zm-84.2-13.61l.12-.81 21.25-19a1.4 1.4 0 0 0 .26-.35l15.56-13.68-7.3 55.06zm28.09-36l.34-6 6.48 4.44zm2.62-45l-.1.12a3.91 3.91 0 0 0-.14 1.34l-4.51 32.8L561 207.37l44.45-24.86zm-49.87 5.47l4.69-4.29-1.93 9zm0-37.88l2.74-2.17.75 8.24zm1.87-11.49l.12 1.34-2.85-5.62 1.49-1.6zm-2.24 2.86l-4.54-2.79 2-2.17zm-7.5-3.72l.07-10.92 3.56 7zm-8.79 62.13v.19l-14.9 3.81-24.38-15 44.3-12.72zM456 225.58l8.62-43.12 26.66 16.82zm-.49-65.8l4.3-.06 1.5 12.28zm-.87-2.78l3.55-10.19 1.23 10.12zm6.44-9.58l7.58 9.38-6.42.09zm8.7-10.7l3.66 4.73-10.44-.24zm-45.87-7.34v-.11l19.86-11.55 10.52 22.54zm-2.32-2l.37-20.5 19.44 9zM377.24 98.2l5.92-20.82 11.46 12.92zm1.4-15.14l-2.72-3.52 4.43-2.47zm-2.18 1.76L364.28 86l9.16-5.11zm-16.57 5.56l5.18 4.32-9.16 7zm-44.61 32.85L326.08 96h.22l23.38 10.08zm-3.5 1.23L291 107.52l32-11.46zm-32.15 14l-13.84-20.76a1.43 1.43 0 0 0 .07-.32l20.22-7.52zm-2 2L244 139.09l19.6-19.6zm-1.07 2.76l-37.07 28.43.5-28.5 1.36-1.36zm-39.36-.5l-.5 28.72-29.81-16.17zm-42.1 12.8l-.18-1.34 3.08.52zm-2.91-.64l.19 1.39-3.4.94zm-39.38-3.54l16.7-14.91 10.77 22zm2.65-6.12l-3.66 3.27.85-3zm-6.88 4.38l-3.91-3.53 5-.39zm-1.44 6.13l-2.51 6.11-2.06-3zm-6.17.82l-1.56-2.26 5.25-.26zm1.34 6.85l-6.72.22 4.67-3.19zm-2.48 2.88l-4.39 3.66-2.05-3.45zm2.24 1.77l-3.17 7.7-2-3.39zm-5.88 8.62l-6.61 1.79 5.13-4.28zm-3.7 3.9l-4.27 3.08-1.41-1.54zm4.28.37l-3.42 8.31-3.23-3.52zm-6.66 8.9l-6.26.4 4-2.87zm-.49 8.16l-.94 2.72-4.37-4.51zm20.11 4.1l-1.9 19.51L132 204.42zm-5.26 50.46l-22.7-16.32.27-.9 25.27-8.89zm-26-15.21L111.91 259 97.3 248.6l20.8-11.51zM144 257.14l-9.53 35.38-18.61-28.75zm-7.17 37.38l4.41-16.39 5.67 7.48zm11.78-6.67l4.47 5.9-12.76 1.41zm-5.14-11.42l14.15-.27-8.6 7.59zm18.13-4l-4-5.11 6.89-3.77a1.41 1.41 0 0 0-.15.27zm10.73-16.67l-.85-5 7.4-1.73zm73.24 4.51l-26.4 39.13-33.57-49zm65.1 26.73l1.88 2.51-4.81 3.18zm27-1.53l5.32 3.68-16.45 4.45zm22-5.34l3.59 3.54-12 3.24zm22.33-6.44l4.06 4-15.54 4zm28.78.46h35.2L429.14 329l-37.9-49.75zm27.46 77.36L429 349.7l1.45-12.4zm.24 2.9l-10.65 5.7.89-7.63zM425 359.23l-12.75-10 13.6 2.68zm-4.86-.25l-9.44-1.86-.93-6.25zm3.18 3.48l-11 5.87-1.23-8.22zm-14.2 3l-11.73-8.15 10.83 2.14zm31.63-9.19l11.06 20.28-36.81-6.47zm54 36.32l-29.51 10.81-8.93-22zm2.77 2l-6.44 45L466.43 406zm-23.35 47.18l10.49 1.79-11.22 2.26zm-3.68 4.64l-5 1 5.68-5.07zm-9.62 1.41l-8.81-9.82 16.7 2.85zm9.08 1.55l-.4 2.24-3.73-1.41zm3-.59l7.58-1.53-8 3.59zm20.72-7.28l6.74-47 44 35.13-50.79 12.07a1.39 1.39 0 0 0 .07-.21zm45.74-7.85l-9.79 5.92-2.6-3zm24.67 3.5l-12.32-6.46 12.32-2.94v9.4zm-15.34-8.61v-50.72l36.08 42.09zm39.47-9.11l1.12-8 4 3.91zm7.13-2.08l6.16 6-10.35-2.7zm-4.23-8.06l14.25-3.45-9.83 7.78zm10.58-12l8.38-8.72-2.07 12.52zm14.51-28.79a1.43 1.43 0 0 0 .07-.18 1.47 1.47 0 0 0 0-.22l.76-4.62 18 12.17-21.25 7.55zm29.8-17.27l15.85 7.92-21.37 12.46zm30.1-9.3l9 14.07-17.2 1.56zm16.9-20.4l18.2 7.28-13.76 10zm-41.65-6l12-15.76 4.9 12.65zm8.65-39.16l2.35-.28 1.65 3.66zm-2.4-2.53l.78-6.57 2.77 6.15zm4.57-5l4.65 3.85-2.82.31zm-1.71-5l2.67-.7 3.59 5.88zm-1.46-2.56l.42-3.53a1.41 1.41 0 0 0 .25-.16l1.85 3zm3.9-3.77l4.4 1.62-2.94.77zm-9.36 26.09l-14.81-27 17.88 1.19zm-19-27.57v.23L606 295.78l7.33-55.3 21.25 15.46zm-31.43-26.09l3-2.47 1.82 5.79zm-1-2.84l1.17-8.5 1.89 6zm2.92-12.26l6.97 4.26-4.36 3.58zm1.36-2.45l3.63-2.67 2.4 6.43zm-2-2l1.61-11.48 3 8.1zm4.11-12.72l7.3 4-.06.41-4.41 3.24zm-.74-3.67l3.45-3.24 3.5 7zm-.52-3.35l.84-6.14 1.82 3.64zm-47.76 14.41l2.89-13.53a1.37 1.37 0 0 0 .21-.83L561 173.28v-.09a1.42 1.42 0 0 0 0-.27 1.17 1.17 0 0 0 0-.16l43 7.41zm-5.87-64.35l-1.68 1.8-2-4zm-58.39 56.95L508 159.9l33 24.64zm-2.67-.84l-26.3-16.59 38.84-20.39zM464.44 175l-1.86-15.27 6.94-.1zm6.56-19.8l-9-11.2 12.66.27zm5-15.08l-3.83-5 7-4.62zm-5.55-7.18l-3.88-5 10.2.85zm-7.61-7.87l-.13.06a1.33 1.33 0 0 0-.27.31l-.09.11a1.36 1.36 0 0 0-.08.24 1.28 1.28 0 0 0-.08.28 1.57 1.57 0 0 0 0 .19 1.39 1.39 0 0 0 0 .32v.13l-4.74 13.62-11-23.33 20.55-4.18zm-20.18-11.74l-19.07-8.8 23-12.84zm-44-26.17l-.4-18.16 12.31 10.31zm-2.79.26l-11.49-13 11.14-5.92zm-21.68-10.13L370 71.84l9.5 2.5zM358.11 87a1.33 1.33 0 0 0-.31 1l-5.65 16.09-23.59-10.14a1.38 1.38 0 0 0 .37-.72l34.14-20.39zM290 104.88l9-25.59 22.9 14.2zM261.13 118l-20.93 20.93h-.62L236.67 118h24.46zm-53.55 33.91l7.42-30.65 20.85 19zm-.72-8.86l-1.6 6.56-1.33-3.85zm-3.46 9.73l-6-1 4.24-3.92zm-43.61-11.48v-4.15l5.37-.64zm-9.35 1.48l-4.37.35 5.06-2.84zm-9.15 4l4.82 4.36-7.07.35zm-4.28 9l1.63 2.35-4.07 2.78zm-3.77 16l-6.38 5.31 4.24-8.9zM124 183.19l2 2.13-4.53 3.26zm-5 11.6l5.12 5.29-6.12-1.2zm11.65 12.27l15.46 16.87-23.06 8.07zM96 246.14l-2.69-26.88 22.3 16zm.3 5.17l14 10-12.6.9zm13 12.88l-10.38 7.25L98 265zm4 .65l16.82 26-30.29-16.67zm24.11 33.48L152 296.7l-9.33 8.3zm3.27 8.57l-9.4 8.47 4.07-15.13zm14.79-14.7l-4.8-6.19 9.16-8.09zm11.27-26.63h.06L182 250l.48.7 1.4 51.34-20.35-26.4zm18.62-10.67l32.23 47-30.75 2.85zm36.81 45.22l26.05-38.71-.78 28.85a1.37 1.37 0 0 0 .3.87zm31.16-7.58l20.67-2.44-10.8 5.48zm25.84-1.94l-1.6 9.44-10.57-3.27zm2.83.11l6.91 3.39-8.15 4zm2.56-1.86l20-2.37-12.56 6.08zm22.3-.35l-4 7.51a1.39 1.39 0 0 0-.31.61l-.48.93-6.93-3.4zm7.55 11.26h.25l29.55-8-31 54.93-8-46.08zm52-14l21.16-5.52-17.1 50.31-20.59-40.32zm23.42-3.75l37.32 49-54.54 1.67zm36.38 67.17l-14.31-2.82 15.9-10.79zm-19.4.65l1 6.74-9.92-2zm-.74 17l-11.28-1.08-.4-7zm45 12.53l-30.13 16.6-6.69-23.1zm2.19 2l9.13 22.53-38.56-6.32zm35.83 60.19l-38.92-6.63 14.16-27zM458.15 449l-13 2.63 4.25-12.39zm8.56 4.6l-8.71 3.83 3.44-5.92zm18.09-5.1l-15.23 13.75 2-7.77zm39.2-11.17l2.51 2.85-18.68 1zm22.62-4.75l.68 6.42-12.49.68zm3.38 6.32l-.66-6.3 11 5.74zm16.85-10.56l5.67 3-5.67 5v-8zm2.46-1.85l12.08-2.88-6.63 5.82zm15.9-2.49v11l-7.77-4.19zm2.8.17l6.74 6.41-6.75 4.26v-10.67zm3.5-.53l10.09 2.63-4.4 2.73zm6.07-8.06l9.3-7.36-2.33 14.19zm15.36-27l21.18 15.62-23.43-2zm1.25-2.56l21.57-7.67 1.58 24.74zm72.59-27.37l.11.17a1.4 1.4 0 0 0 .3.32l-7.2 16-12.09-14.78zm-3.36 15.67l6-13.37 2.21 8.67zm8.94-1.89l1.36 5.33-8.92-1zm.28-10.22l5.23 3.84-3.71 2.12zm-.64-3.91l5.11-2.18.58 6.36zm0-3l4.23-9.4.66 7.31zm7.09-8.83l3.08 4.48-2.58 1.1zm4.43 1.5l-3.55-5.17 5.63.93zm-3-7.92l10.72-7.77-4.32 8.83zm12.71-5.45v7.55l-3.42-.57zm2.8-4.45l3.59 1.4-3.62 6.08v-7.51zm1.5-2.42l7.56-5.48-4 6.85zm9.52-3.29v7l-3.35-1.3zm-12.56 2L712.11 311l12.82 7.79zM692.1 318l-4.1-16.48 18.76 7.5zm-9.34-19v.06l-11.58 13H671l-5.74-14.82 2.81-3.7a1.07 1.07 0 0 0 .84 0zm-15-17.52l-2.58-5.73 3.36-.4zm1.69-13.25l-3.56-5.82 4.44-1.15zm-8.25-14.31l1.93-1.59 3.29 3.51zm-1.91-2.05l-1.1-4.87 3 3.24zm1-6.69l5.39 1.42-2.29 1.89zm-1.55-3.3l2.53-2.06 3.87 3.75zm-2.16-1.88l-1.4-6.1 4.06 3.93zm1.75-6.94l4.67 1.71-1.58 1.23zm-6-11.58l7.78 4-6.35 2.25zm-2 3.67l6.67 29.3v.55l-18.35-1.22zm-39 9.11l-2.74-8.69 4.51-3.7zm3-21.34l-1.84-4.92 2.83-2.08zm2.47-17.25l-3.45-6.89 5.12-4.8zm-4.75-9.5l-2.4-4.8 7.33.18zm-51.48-17.74l-1.76-19.3V149l-1.69-8 .07-.17 35.49 2.84zm-17.1-16.94l-.2 31.27-32.76-24.49zm-76.67 25.3l15.42-46.65 22.12 26.94zm.49-51.6l8.82-3 2.72 4zm-.59-2.75l3.25-9.33 4.54 6.65zm6.59-9.39l14.11 2.28-10.18 3.49zm3.48-2.27l14.47-3.34.56 5.76zm-31.49 3.62l4-21.78 17.4 17.38zm-21.88-13l4.37-25.88 17.52 13.68zm-9.06-24.87L413 61.14l10.72 10.72zm-2.82-.12l-12-10 10.6-5.63zm-20.34-8.78l-7.44 4-.42-3.36zM383 65.44l-.52-4.19 9.08 3.55zm-2 6.39l-10.15-2.67 9.73-.73zM330.52 89l9.18-20.45 20.65 2.64zm-43.2 15.14l-11.44-15.25L296 79.54zm-24 9.72l-13.89-14.74 21.11-8.72zm-28.2.33l-9.64-14.69 19 .43zm-2 3.37a1.38 1.38 0 0 0 .75.38l2.65 19-19.9-18.09zm-23.84 15.65l-.79-2.85 2.44-4zm-2.79.4l.91 3.3-4.46 2.44zm-6.21 10.07l.43 1.26-2.82 2.61zM166 133.59l-3.79.45 5.14-2.89zm-25.31 9.34l-6.3-4.43 18-2.15zm-1.74 2.2l-7.12 14.94.57-19.54zm-21.22 44.51l-19-14.56 29.39-7.27zm-2.49 8.71l-7-1.35 8.1-2.8zm-10.81 2.48l4.08 3-4.51-.13zm6.35 5.88l-7.56 3.06.44-3.26zm-10.22 1.87l-8.2-2.39 8.49.24zm19.55-2.58l8.29-1.07-8.62 28.31-1.06.37-.1.06h-.11l-.21.11-24.1-17.32zm-26.66 45.25l1.43 11.16-13.88 1zm1.78 13.94l.77 6L83.47 266zm38 30.59L100.74 310l-2-33.22zm-.52 3.28L128 316.24l-23.91-4.69zm9.66 10l4.62 5.78-11.84.72zm20.14-30.22L183 305.49l-31.43 8.27zm53 26.07L200 324.22l-12-16.76zm-11.24 18.55l14.16-17.72 1.28 11.08zm16.91-18.28l12.06 5.82-10.94 4.71zm16.33 4.45a1.38 1.38 0 0 0-.66-.1l-10.59-5 14 .21zM226 301.7l19.71-6.92-4 7.16zm22-5.22l1.38 5.56L245 302zm15.41 2.08l7.27 2.25-14.18 1.26zm28.59-2.89l5.63 2.76-13.85 1.23zm18.72 53.42l-47.36-6.89 39.07-40.55zm36.67-57.47l21.24 41.6-53.3 15.25zm78 42.21l-19.52 13.25-.16.17-12.43 6.67L374 335.39zM391.54 358l.46 7.4-12.09-1.16zM377 367.85l12.08 8.32-12-1.26zm34.09 4.33l6.34 21.89-20-14.6zm50.67 34.36l-13.56 25.9-24.2-32.09zM446 440.23l-3.74 10.9-5.53-4zm-11.63 5.11l-18.48-13.53 29.89 5.1zm23.63 6.43l-4 6.79-7.26-4.56zm10.23 4.08l-2.16 8.46-8.07-3.78zm23.9-10.36l19.55 25.83-41.51-6zm2.9-.81l32-1.74-12.43 27.54zm69.21-3.77L568 468l-34.58-25.4zm10.9-8.11l8 4.29-13.68.74zm21.65-.23l4.08 3.87-10.77.34zm46.58 5.34l-31 29.17-7-28zm-18.1-2.23l-2.32-3.8 13.27 3.46zm-20.46-1.51l1.44-6.66 9.29 2.42zm5.43-29.17l24.19 2-27.15 16zm28.32-26.68l20 6.06-18.47 18.43zm27.51-15.76l11.75 14.36-14.39 4.55zm18.32 17l9.32 1-3.41 3.12zm11.89-3l-1.4-5.51 3.35-1.92zm4.1-15.64l-.53-5.92 2.35-1zm8.08-16.68l2.66.44-4.55 3.43zm21.33-23.74l2.11 1.17-2.11 4.33v-5.5zM731 318l4.21-3-2.07 4.24zm6-.29l1.22 4.29-2.61-1.45zm-1.55-15.27v8.89l-8 5.82-12.19-7.4zM708 283.5l1.42 23.59-19.83-7.93zm-37 7.76l10.9-14.39 2.13 19.6zm-1.25-3l3.25-25.84 8 10.89zm-4.43-37.76l2.54-2.11 1.63 6.57zm-1.87-12.5l1.51-1.23.88 3.55zm-6.59-8.47l5.79-2.05 1.14 4.59zm5.78-6l-7.64-3.81 8.9-2.6zm2.26-11.09l-6-5.22 7.22-1zm-7.12-7.89l1.41-4.13 4.9 3.25zm9.69-2l-4.71-3.13 6.73-.34zm-13.08 3.24l-4.57 13.42a1.37 1.37 0 0 0-.36.5l-12.93 31.67-5.67-27.73a1.38 1.38 0 0 0 .48-.62l24.4-21.21zm-40.46 29.52l4.6-32.17a1.37 1.37 0 0 0 .07-.51l2-14.25 7.55 34zm-4.06-56.82l2.4-5.21 5.15 5.39zm-2.13-2.07l-3.74-11.8 6.25 6.55zm-2.65-14.71l8.25 2.57-1.89 4.1zm-2.24-3.63l2.22-3.64 5.51 6zm-1.77-2.47l-2.74-8.56 4.76 5.23zm-1.86-11.75l8.14 1.45-2.73 4.49zm-52.84-12.4l.08-13.13 3.79 5.93zm-37.5 24.21l10.8-29.55 21.9 22.88zm8.44-31.24l-11.13 30.44-21.9-26.67zm-38.48-3.28l10.34-3.55-7.64 7.5zm15.67-8.78l-.51-5.58 8.23-1.9zm-.81-8.37l-.26-2.65 6.39 1.23zm-2.75.63l-12.85 3 12.51-6.46zM467.57 107l-17.2-17.2 16.51-6.1zm-53.28-48.48l11.35-6-1 16.42zm-7.61.87l-7.83 4.16-.2-4.16h8zM396 63.56l-10.68-4.17h10.48zm-16.43-2.42l.56 4.52-8 .6zm-52.81 29.43l-4.25-17.47 13.84-3.89zM300.43 75.1l15.12-22.67 4.17 18.08zm-51.65 21.26L246.4 74l23.41 13.65zm-25.39 5l8.8 13.43-15 1.18zm-11.29 17.78l-6.22 10.08a1.37 1.37 0 0 0-.23.37l-12.08 19.58-3-30h21.53zm-42.09 13l1.92-3.46v-.15l5.57-3.13zm-11.46.74l-2-20.77 11.31 15.52zm-26.06 3l-2.62-18.64 23.85 16.11zm-2.87 4.91L129 163l-20.53-14.19zm-2.47 24.36l-29.59 7.35 8.6-21.83zm-11.61 26.28l-10.68 3.7L99.3 179zm-14.29 12.18l-11.43-.32 12-4.16zM95.43 210l-7.09.39-2.58-3.2zm.41 2.78l-4.2 1.7-1.14-1.41zm-8 1.4l-4.33-.72 3.59-.2zm-1 2.68l-6.75 3.71-1.32-5.06zm1.16 2.58L82.55 230l-1.73-6.64zm-8 11.9l-7.3-3.51 5.59-3.07zm-4.57.91l-4.33.25-.21-2.43zm2.52 2.66l-6.16 3.92h-.1l-.31-3.49zm-9.19 2.92l-6.26-2 6-.35zm22 12.17l-12.34 12-6.52-19.11zm1.92 22.87l-12.43 1.78-1.12-7.39zm.14 2.81l-11.22 7.84-.93-6.1zm-14.08 7.7L68 279.22l9.89-1.41zM96 276.9l2 32.94-30-13.46zm-31.44 21.71l.6 7.36-4.16-5.11zm-5.31.06l-4.1-5.06 8 2.62zm9.15 12.55a1.65 1.65 0 0 0 0-.5 1.46 1.46 0 0 0-.05-.26 1.55 1.55 0 0 0-.06-.2l-.91-11.1L96 312l-26.6 11.61zm65.6 7.24l13.13-.8-3.51 6.89zm15.34 1l11.91 16.22L146 326zm1.53-2.65l30-7.9-16.16 26.79zm47.31 9.66L179.41 350l6.8-40.28zm1.51 2.6l3.82 6.4-20.31 14.27zm2.87-.65l14.37-2.36-11.13 7.8zm20.44-6.76l-.35-3.07 12.87-5.59zm20.33-16.88l4.13.06-6.73 4.63zm55.67-3.67L260.62 341 253 305.2zm67.75 35.54l-42 52.47-10.6-37.41zm4-.48l19.87 19.13-50.33 27a1.38 1.38 0 0 0-1.55.52 1.41 1.41 0 0 0-.17.4l-9.68 5.19zM357 387l.19 7-11.44-8zm3.24 9.32a1.37 1.37 0 0 0-.24-.32l-.24-8.8 14.92 1.3zm17-9.24a1.36 1.36 0 0 0 0-.27 1.2 1.2 0 0 0 0-.14l-.13-8.9 14.84 1.5-14.77 7.91a1.43 1.43 0 0 0 0-.18v.08zm17.51-6.08l23 16.81-35.07 10.39 11.76-27zM446 434.11l-33.91-5.78 8.76-27.54zm-14 13l-11.85 8.75-7.25-22.73zm2.37 1.73l5.21 3.82-14.27 2.87zm17.23 11.5l-9.92 4.48 2.2-9.22zm12.94 6.35l-16 14.41 6.86-18.66zm5.77 5l28.15 23.19-13.7 20.12zm12.08 45h-17l2.61-43.1zm-11.83-48.45l41.91 6L500 492.48zm44 8l15.8 41.26-28.13-23.17zm15.37-32.69l35.89 26.33-48.71 1.88zm37.17-2.74l17.16-.93-13.6 26.64zm35.64-1.57a1.38 1.38 0 0 0 0 .59l6.12 24.5-21-24.63zm42.66.76l8.23 26-38.19 2.17zM609 425.31l29-17.1 5.11 26zm51.81-39.12l13.44 25.32-32.43-6.37zm18.77-6.86l4.27 10.59-18.18-6.2zm8.73 10l2.28-2.09 5.8 4.09zm4.39-4l3.76-3.45 3.64 8.66zm8.66-17l9.47 5.63-11.92 3.69zm.74-2.82l3-11.54 7.16 17.59zM734.35 323l3.5 2-6.85 4.86zm6.91-.5l-2.07-7.27 6.35 4.19zm-1.65-10.34l2.31-1.14 1.8 3.85zm-1.4-2.43V303l2.53 5.41zm-26-2l-1.54-25.6L733 300.26zM687 297.7l-2.39-21.7 22.27 4.74zm-3.41-25.7a1.32 1.32 0 0 0-.09-.18l-9.75-13.19a1.34 1.34 0 0 0-.54-.42l-.2-.83 23.5-1zm13.7-18.58l-.09.13-23.8 1 6.6-18.87 17.27 17.75zM677.66 234l-6.16 17.52-6.1-24.59zm-8.4-28.89l3.06-5.24 13.12 7L666 221.12zm8.19-19.57l-4 6.92v-3.83zm-6.84 10.76l-7.74.39 7.74-5.91v5.53zm-37.86 21.87l9.25-33.06 14.79 12.18zm-2.75-.57l-7.94-35.74 17.39 1.93zm-16.46-47l1.67-3.62 2.39 7.88zm-6.95-18.6l2.65-4.35 1.68 5.23 1.77 5.82zm-9.33-11.28l1.57-4 6.38 5.4zm-1.88-2.87l-1.77-5.53 3 2.5zm-1-8.5l5.58-3.26-2.35 6zm-4-3l-6.79-9.85 7.78-.32zm-10-14.49l-5.81-8.43 6.12 1.31zm-33.55 2a1.39 1.39 0 0 0-.38-.4l.06-8.76 2.73 12.91zm-3.4 33.1l-22.59-23.56.06-.37 22.83-23.14zm-58.11-21.63l21-20.61 9.77 17.09zm-15-16.92l-.73-24.9 19 15.49zM449.85 87l-2.36-20.88L465.91 81zm-22.43-17.12l1.06-18L443 62.9zm-14.79-13.66l-.84-6.12 11.29.56zm-3-1l-8.12-5.6 7.4.37zm-14.38-4.87h.12l.3 6.28h-9.5zM377.85 59l-12.23 8.43-10-13.07zm-28.05-5.8l-10.33 11.12-3.6-11.52zm-12.71 12.89l-14.57 4.1-4.13-17.88 14.52.42zm-91.31 28.56l-11.09-17.37 8.85-3.68zm-31.53 21.13l-10.86-17.65 17.42 2.18zm-14-17.34l11 17.9h-20.36zm-28 26.72l4.94-21.49 8.93 13.7zm-2.85-.09l-11.84-16.24 16.7-4.93zm-39.75 11.31l-10-7.79 7.2-11.9zm-29.34 12.49l-4.71 2.2 1.07-2.2h3.64zM84.76 156l.69-.13-.79.37zm18.38-5.31l-7.74 19.64-10.74-11zm-7.95 25.2l.08.06 6.66 19.39-23.5-10.18zm3.91 21.27l-15.27 5.28-5.6-14.31zm-17 10l2.8 3.47-4.83.27zM77.56 222l-5.06 2.79 3.92-7.2zm-9.26 10.7l-5.18.3 4.95-2.89zm-10.55 4.53l7.54 2.46-7.61 1.31zm8.59 5.11l-8.79 5.6.07-4zm-11.59 5.57l-9.61-1.8 9.68-1.72zm14.49-4.11l6.66 19.54-26.55-6.87zm8.2 31.2l-9.8 1.4 8.72-8.51zm-1.68 10.2l-9.53 2.19-1-6.28zm-1.16 3.14l-7.36 5.14-.55-3.33zm-10.16 5.35L59 292l5-1.13zm-7.57 6.46l-3.6 2.29-.8-7.71zm1.78 2.19l4.29 5.29-7.69-3.13zm36.23 13.22l-11.65 14.7-13-3.93zm4.17-.75l8.88 22.91-21.82-6.62zm30.17 5.19l6.65 16.74-22.45 1.32zm11.2 17l4.31-8.46L161 338.86zm64.53.89l5.5 9.22-25.68 4.89zm18.34-12.45a1.34 1.34 0 0 0 0-.27 1.38 1.38 0 0 0 0-.28v-.07l27-18.57L258 342l-41.6 4.11zm38.1 25.64l4 13.36-1.21 2-2.89-5.33a1.35 1.35 0 0 0-.33-.4zm5.12 16.92l1.76 5.83-2.51-4.63zm2.4 12.88l-7.69-4.36 2.84-4.58zm58.45 11.48l11.39-6.11-.14 7zm11.2 3.68l-.19 9.49-10.78-10.34zm3-9.62l11.44 8-11.58-.9zm49-3.23L380 407.52l-17.45-9.31zM418 400.63l-8.53 26.82L383.18 411zm-8.13 32l7.38 23.17-18.25-6.74zm31.27 22.54l-2.41 10.09-14.73-6.62zm11 8l-6.73 18.31-4-13.45zm11.32 8.27L452 499.37l-5.09-13.08zm1.7 3.23l-2.41 39.7-9.16-11.44zm16.9 44.81l-10.44 20.45-5.83-20.45h16.27zm18.59-22.85l28.6 23.55-42.38-3.31zM518 477.4l29.3 22.86L533.93 519zm.77-3l48.3-1.86L548.94 498zm49.92.69l2.15 39.93-19.7-15.37zM586.27 442l22.45 26.39-36.52 1.21zm65.63 26.81l-15.69 15.61-20.29-13.56zm4.28-4.09l-8.29-26.24 27.42 9.1zm20.26-14.4l-5 19.08-13-3zm-35.74-42.54l32.76 6.44L646 434.73zm23.17-21.69l21.31 7.26 4 10-11.91 8zm28.45 15.34a1.38 1.38 0 0 0-.46.19l-.11.07-.24-.14-3.08-7.62 5.83 6zm3.91.46l5.14 5.24-6.86-3.87zm-4.74-8.83l8.63 2.14-3.67 2.93zm7.4-12.45l13.32-4.12-8.69 15.13zm8.51-28.27l19.2 4.66-11.34 14.68zM730 334.8l14.35 6.2-14 11.54zm14.9 3.38l-13-5.59 14.16-10.18zm1.67-23.77l-2.18-4.67 2.18-1.08v5.75zm-3.36-7.2l-2.3-4.93 4.53 3.83zM686 273.47l12.84-15.59 7.82 20zm-4.11-39.88l20.43-6.5-4 23.35zm-15.48-9.31L684.58 211l-6.64 19.93zm7.31-26.83l7.92-13.56 4.28 20.11zm-12.64-2.93l7.67-29.31 11.53 14.63zm-3 .26l-14.44-11.9 22-16.91zM639.86 181l-17.23-1.91L643 152.32zM621 176.57l-7.45-24.51-1.75-5.43 30.42 2.08zM599.91 134l2.71-6.89 4.06 12.63zm-6.73-7.15l1-10.51 6.6 6.07zm-10-13.16l.31-7.19.59.5 6.92 6.37zM572.3 100l-4.88-7 9.58 8zm-21.6 10.72l-2.7-12.8 12.19-4.76zm-29 7.51l5-31.48 16.76 9.43zm2-30.57l-5.19 32.64-10.09-17.66zm-15.64 11.48l2.2-6.86 5.43-.63zM494.35 96L498 66.31l9.07 23.17zm-3 1.55l-19.89-16.21 24-17.53zm-25-42.87l1.16 24-18.87-15.27zm-55-7.43l-.68-5.25L421 47.77zm-3.6-5.59l.75 5.45-8.07-.4zM392.14 49l-8.93 6.16 2.92-9zm-11.87 6.15l-8.74-15.74 12 5.6zm-4.31-2l-14.57-9.25 6.31-5.6zm-2 2l-19.12-4a1.38 1.38 0 0 0-.44-1h-.07l4.88-4.33zm-22.33-6.39l-3.4-10 8.54 5.43zm-3.63-2L342.59 43l2.77-4zm.19 3.54l-10.47-.3 3.27-4.7zm-12.79-1.77l-3.31-9.37 6.63 4.6zm-3.58-1.74l-6.74-4.56 3.62-4.28zm-.43 3.09l-12.48-.36 4.35-5.15zm-14.12-2.76L315 38.74l6 4zm-5.73-10.22l2.51 9.1-6.9-5zM314 49.38L298.78 49l6.33-6zm-16.9-2.69l.2-9.32 5.5 4zm-2.82 1l-5.9-2.08 6.11-7.7zm-1.51 2.43l-11.9 4.94L286.5 48zm-13.38 2.3l.89-6.71 3.43 1.29zM276 56.77L269.93 55l7.28-7.42zm-3.71 1.85l-9.89 4.1 5.31-5.41zm-37.62 15.64l1.3-3L240 72zm-2.59-1.07L231 75.8l-10.84 4.5zm-19.83 13.67l7.56 10.5-17.08-2.14zm-24 28.51l-8.64-13.24 18-4.58zM176.17 99l-.25.1-5.31-3.42 9.53-9.11zm-2.28 2.12l-13 3.84 7.62-7.29zm-17 3.77l4.5-11.78 4.68 3zm-3 0l-3.05-3.19 7.25-7.7zm-1.74 2.23l-7.9 1.6 4.67-5zm-10.46.24l2.86-8.17 2.43 2.53zm-3.52 1.57l-2.31-2.27 5.06-5.58zm-2.45 1.52l-4.06.82 2.31-2.54zm-13.07 7.86l1.07-4.09 1.22.3zm-2.7-.75l-2.31-4.85 3.37.84zM119 122h-3.21l.54-5.6zm-.27 2.8l-3.83 6.33.61-6.33h3.22zm-6.55 5.42l-2.08-5.42h2.6zm-1 5.16l-3 .12.48-6.68zm-.54 2.82l-3 5 .35-4.86zm-5.74 3.93l-2.34-3.61 2.61-.1zm-11.28 6.71l-1.37 2.81h-.08l-6.05 1.18 1.74-4h5.76zm.64 24.31l-17 9.38 5.34-21.33zm-13.69 28.6L68.94 199l6.54-10.23zm-.31 2.8l-3.18 5.84-8.24-8.58zM69 225.4l-9.47-5.52 14.95-4.55zm-2 2.07L57.44 233l-.32-11.3zm-12.09 14l-9.14 1.63 9.23-5.39zm-5.13 8.28l-6.06 2.16-3.18-3.91zm.41 2.82l-3.9 2.48-.69-.85zM43.36 256l-5.26.93 4.66-1.66zm31.15 9.85l-9.72 9.49-15-15.89zm-11 22.22l-9.6 2.2-.3-.1 8.81-8.61zm.6 23.11l-4 2.7-4.68-6.25zm1.67 2.25l.74 9-4.75-6.33zm-2.55 9.3l-6.69-3.09 2.91-2zm-3.67 1.39l6.69 3.09-2.82 1.94zm21.52 8.43l-4.52 3.19-4.43-5.9zm2 2l3.61 2.65-6.88-.34zm8.16 2.88a1.35 1.35 0 0 0-.48-.72l-3-2.16 10.71 3.25zm45.77 2l6.9 17.57-27.68-16.25zm3.67 1.66l15 6.69-8.94 8.56zm4.95-.86L162 341.7l-4.16 4zm20.25 1.65l8 11-13.3-5.88zM256 345l-40.28 33v-29zm4.75 20.89l1.75 3.22-2 3.26zm-1.15 27.47l.48-11.59 5 7.27zm3-12.8l7.64 4.33-3 2.41zm9.15 6.71l1.76 9.27-4.72-6.92zm2.92.4l7.35 6.86-5 4.8zm2.68-1.33l11.26 2.11-4.52 4.17zm13.44 3.9l2 10.46-6.61-6.17zm5.39 13.56L294 392.14l6.29 7zm-.55-14l11.14 2.09-4.62 5.2zm12.93 4.28L310.2 406l-6.08-6.8zm3 1.46l4.56 7-3 5zm1.77-2.42l7.57 1.42-3.18 5.32zm9.28 4l1.9 13.13-5.08-7.8zm2.82 0l11.87 11.38-9.49 5.08zm15.83-.83l15.49 1.21a1.37 1.37 0 0 0 .08.54l-15.77 8.45zm18.15 3.54L378.57 410l-27.24 9.68 7.88-19.68zM406 428.64l-47.37 6.82 22.08-22.7zm-5.79 3.66l-20.49 11-18.1-5.4zm6.73-.42l-10.78 16.27-12.63-3.77zm7.31 25.85l-24.25 4.9 7.38-11.14zm3.49 2.15l-.74 5.53-24.4-.48zm2.78.3l12.28 5.54-12.94-.25zm12.87 8.35l-14.74 6.66.87-6.93zm1.87 2.23l-6.25 8.4-7.17-2.33zm3.81-.43l4 13.41-11.29-3.67zm-.14 15l-12.2 1.67 3.37-4.53zm3.11 2.41l-4.89 6.37-8.92-4.52zm2.77 1l4.49 11.53-9.61-4.86zm1.25 13h-11.2l3.15-4.1zm4 2.8l-1.44 4.84-10.34-4.84h11.78zm2.46 1.56l6.52 8.15-7.85-3.67zm7.92 11.9l-13 5.37 3-10zm1.67 2.34l-2.2 12.88-10.11-7.8zm2.15 4l4.46 15.66-6.3-4.86zm4.17 19l-.17.07-7.74 3.07 1.4-8.2zm15.34-21.07l10.37 22.85-21.28-1.5zm2.69-.85l21 15.74-10.74 7zm2.58-1.56l40.29 3.14L510 535.51zM549.52 502l19.28 15-32.31 3.2zm22-26.46l16.34 21.31-14.25 17.54zm1.13-3.13l36-1.15-19 23.35zm37 2.11l-5.29 39.2-12.9-16.82zm2.89-.51L625 495.58l-17.8 17.74zm3.4.28l18.28 12.21-7.1 7.06zm20.65 13.8l7.24 4.84-7.36 16.75-7.93-13.68zm2-2l14.6-14.53-8.25 18.78zm16.83-12.63l6.12 28-14.23-9.51zm2.62-1.09l9.68 11.18-4 15zm1.31-2.76l11.36 2.59-2.12 8.07zm14.08 3.21l5.17 1.18.34 18.23-8.14-9.39zm.71-2.71l4.09-15.55.31 16.55zm-22.8-33.35l30.85-5.89-4.19 14.7zm27.41-22.89L689 407l-4.41 15.54zm14.72-7.4l-.19-.65 13 7.34h-10.11zm5-6.3l4.21-3.37 5.63 13.39zm16.38-22.55l7.63 18.59-16.92-2.42zm2.35-1.62l15.1 1-7.39 17.81zm.37-2.78l11-14.2L733 374.2zM747 342.45l6.47 13.26-20.6-1.59zm-6-43.82l.87-.58 1.4 2.5zm-2.22-1.88l-.52-.44v-4.71l2.24 4zm2-6.31l4.38 2-2.37 1.56zM710 278.57l-8.54-21.82L730 266zM701 251l4.11-23.73 17.58 10.45zm-20.17-20l7.2-21.6 14 14.86zm3-50.13l16.74 3.83-12.26 17.25zm-1.83-3.38l-11.35-14.41L687.5 161zM642.78 180l3.31-30.23 20 12.31zm-31.86-36.3l-6.43-20 35 21.93zm-25-38.83l-.56-.48 14.45-7.44 1.79 22.33zm-2.92-2.46a1.39 1.39 0 0 0-.29-.19l-12.78-10.81L597.48 95zM527.49 84l4.3-4.22v-.06a1.31 1.31 0 0 0 .21-.22 1.45 1.45 0 0 0 .12-.22v-.06a1.38 1.38 0 0 0 1.08-.57l3.17-4.44 7 18.78zM519 88.46l-5 .54 9.16-4.73zm-7.31-1.35l4.88-18.64 3 14.53zm-2.69-.59l-9.26-23.68 15 1.91zm-38.68-7.82l-1.12-23.1 24.89 5.74zM447 61.12l-1.9-19 .4-.21 18 11zm-6-20l-12.23 6.5-1.23-6.62zm-14-3L425.87 32l11.37 6.22zm-1.17 9l-11.49-6.4 10.35.28zm-29.67-.93l-5.94-5.93 14.94-.26zM384.5 42.4l-8.28-3.85 8.91 1.94zm-25.5 0l-8.31-5.29 13.71.49zm-18.67-.92l-7.18-5 10.39.37zm-17.57-.82l-7.07-4.79 10.79.38zm-17.91-1.27l-5.7-4.1 9.7.34zm-19.29 5.29l-3.42-1.21 8.28-4.92zm-18.72 9.55l-1.89-.54 5.8-3.45zm-9.44 9.67l-6.46-1.9 8.68-5.16zM244.24 70l-5.11-1 6.31-3.75zM213 81.26l-4.48-5.66 18.09-2.43zm-7.39-4.83l5.85 7.38-11 9.68-12.58-10.83zm-8.08 18.25L179 99.4l4.78-15a1.36 1.36 0 0 0 .52-.56 1.4 1.4 0 0 0 .37-.06l.17-.06zm-29.36-.56l-5.35-3.44 14-4.84zm-19.25 5.56l-2.47-2.58 7.85-3.15zm-15 5l-1.63-1.61 5.73-2.91zm-7.7 7.32l-1.74-.43 1.35-5.16 2.45-1.24zm-4.46-1.11l-3.2-.79 3.93-2zM113 122h-2.32l2.77-4.69zm-7.62 13.61l-2.8.11 3.18-5.38zM73.56 161.4l-3.8 1.78 4-3.71-.22 1.63a1.36 1.36 0 0 0 .02.3zm6 .27l-4.81 19.53-9.22-13zm-13 35.79l-4.91-11.73 11.63 1.22zM75 212.24l-16.7 5.08 8.58-13.55zm-20.35 21.07L45.9 231l8.44-8.77zm-1.8 2.42l-12.2 7.14 3.59-9.4zm-15.3 13.14l3.33 4.07-6.25 2.23zm6.1 9.9l-6 14.16L33 260.65zm-4.8 18.44l7.4-17.4 16.07 17L37 281.58zm21 2.9l-9.47 9.24a1.36 1.36 0 0 0-.4.16l-12.52-5.18zm-2.12 35.31l-2.94 2-.71-6.83zm5.07 17.5l2.48 3.21-6.67-.33zm5.67 3.37a1.38 1.38 0 0 0-.27-1l-3.08-4 3.06-2.1 5.49 7.32zm40.07 4.81l-5.82 17-22.07-18.39zm2.94.06l31.16 18.3h-37.4zm46.9 7.89l12.62 5.64-23.14 4.44zm35.91 15.71l-10.84 11.78-3.78-19.54zM213 351v25.5l-14.28-12.16zm45.84-4.63l-2 48.59-39.26-14.81zm7.87 45l5.61 8.23-12-3.19zm17.5 5.08l9.47 8.82-14.77-3.93zm18.09 4.83l7.39 8.26-11.9-3.17zm15.7 3.85l5.21 8-8.61-2.29zm37.41-3.13l-7 17.5a1.37 1.37 0 0 0-.88 0 1.34 1.34 0 0 0-.3.2L330 415.63zm20.26 12l-20.26 20.83-5-11.84zm.64 31.1l-6.11 3.27-9.08-7.8zm3.81 1.14l14.52 4.33-7.93 12-14.23-12.22zm36.68 21.94l-.91 7.27-17.89-7.61zm10.54 13.32l-3.53 4.74-4.31-7.24zm8.17 14.83l-3.29 4.28-5-8.45zm12.39 15.74l-3 10.17-9.34-16zm11.52 24.23l-1.42 8.37-10.07-17.21zm9.55 9.8l2.17.15 11.33 19.65-21-16.83zm5.54.39l18.87 1.32-7.59 18.19zm35.43-7.6l10.75 8-20.88-1.47zm24.29-14.31l9.47 10-15.21 8.66zm2.35-1.59l33.2-3.29-23.58 13.43zm33.24-.1L563 550.84l-14.81-15.59zm19.83-23.82l12.87 16.78-27.07.7zm36.87-1l7.87 13.56-25.11 3.59zm19.67-3.6l14.22 9.53-21.3 6.5zm23.81-8.41l8.2 9.47-12.35 6.29zm11.47-11.47l3.8.87-3.59 10.48zm0-2.88l-.47-18.24 8 10.88-2.9 8.45zm-.21-22.79l6.67 1 1 9.49zm-.47-2.92l4.48-15.8.41-.08 1.83 16.88zm8-13.14l13.78 16.31-12.21-1.78zm1.27-2.84l7.48.38 3.75 12.92zm-2.38-2.92l-1.08-1.61 4.7-16.49 5.41 18.62zm9.33-8.56l8.52 9.46-5.86-.3zm11.3 8.37l-9.94-11H710zm-2.69-30.36l15.7 2.24-9.1 13.48zm29.24-18.45l6.59 12.9-.07.19-13.93 4.81zm8.43 15.9l1.06 7.21-4.34 1.3zm3 .93l3.48 4.66-2.68.8zm-3.46-7.46l-5.54-10.83H747zm5.17-13.56h-12.17l-.18-.35-4.85-16.79 23.2 1.79zm7.71-19.91l-6-12.33 12.12-3.51zm-7.36-14.85a1.35 1.35 0 0 0-.66-.32l1.23-16 12.24 12.56zm-4.19-42.67l2.44-1.63v6zm2.44-6.53v.05l-8-3.7 2-2.19 6 5.43a1.33 1.33 0 0 0 0 .42v-.05zM737 284l-.78-3.76 2.33 2.1zm1.81-5.2l2.66.41-1 1.08zm-2.06-3.15l1.47-2.31 2.54 2.93zm-1.93-2.19l-1.1-5.31 2.58 3zm2.31-5.65l1 .38-.3.47zm-4.87-6.81l-1.88-9 4.62 2.9zm-10.77-38.2l2.59 12.5-16.18-9.62zm-31.42-15.38l23.7-2-9.71 16.89zm22.57-4.69l-22.78 1.9 13.37-18.81zm-44.91-42.87l-19.37-11.94L677 139.5zm-61-38l26.27-19.8 9.84 42.41zm-2.31-1.76l-1.88-23.45 27.57 4.07zm-34.87-31.56L581 70.08l15.83 22zm-3.2-.15l-4.59-3.87-.46-.45-.3-.43a1.37 1.37 0 0 0-.65-.49l-5.72-5.52 23.53-8.2zM546 91.87L539.32 74l10.51 4.43zM534.51 72l-3.57 5a1.4 1.4 0 0 0-.18.4h-.24a1.36 1.36 0 0 0-.29.08h-.07l-8 4.12-3.36-15.86zm-86.18-31.57l14-7.42 3.67 18.2zm-2.77-1.7h-.09l-1.31-7.32 14.39.45zm-3.08-.73l-12.89-7 11.69.37zm-53.81-.37l.64-14.63 16.32 14.36zm-2.17-14.35l-.63 14.5-13.64-3zM348.13 34.2l13.35-16.09 5 16.74zm-67.53 6.9l.33-12.89 12.32 5.37zm-18 10.68L260 35l16.16 8.76zm-14.7 8.75l-6-18.13 16.83 11.72zm-13.32 7.91a1.33 1.33 0 0 0-.25.15l-1 .58-6.19-19.77 17.41 13.13zm-27.3 4.5l.92-18.44 20.05 15.63zm-21.86 7.61l-.1-.08 5.6-18.87 12.6 12.6zm-39.08 13.58l5.74-16.64 5.68 12.06zm-14.84 6.21l-2.64-11.7 12 6.94zm-14.24 7.23L113 97.5l14.24 5zm-9.15 13.3l-12.37-10.74 17.85 1.49zm-8.68 14.67l-12.32-7.39 18.61-3.24zm-13 9.38l-9.05-3.26 15.11-.91zm-2.63 2l-2.72 1.91-.08.07-.08.05-4 3.69-.14-8.23zm-19.87 23.83l9.52 13.4-12.58-1.32zm.61 29l-13.77.68 8.51-13.25zm-.27 2.82l-8.82 13.93-5.57-13.22zM37.58 243l-6.5-8.25 10.14-1.27zm-7 14.25l-9.09-8.4 13.79-1.7zm5 18H25.29l5.63-12.11zm12.87 16.65l-12.92 22.28v-27.62zm1.27 3.4l3.87 37.4-17.42-14zm24.21 44.08l-10.74 18.34-6.55-19.21zm2.81.73L100 359.47H65.41zm65.63 22.16l-18.46 15.39-16.16-15.39h34.62zm34.34-5.82l4 20.52-30.21-15.49zm20 9.87l13.86 11.81h-24.75zm18.79 16.07l38.9 14.68-42.4 19.7zm44.93 17l32 8.52-26.51 22.73zm2.72 31.61L243 436.2l14.85-35.2zM312 413.09h.07l10.63 2.83-25.7 27V409.1zm34 9.28l-19.07 17.88v-22.5zm2 1.94l5 12.09-22.9 4.66zm7.61 15.43h.18l11.78 10.11-3.67 2-.11.09a.17.17 0 0 0-.12.07l-24.48 20.22zm30.25 26.66l1.69 11.1H340.7zm2.92.55l1.49.64 23.23 9.92h-23.17zm23.34 13.35l-18.69 17.13-2.61-17.13h21.3zm2.78 1.25l-5.44 29.38-14.88-10.83zm2.86-.1l4.7 8 8.39 14.33 23.27 39.75-42.22-30.77zm37.51 66.43l-51.48 9 7.61-41.1zm28.36 22.55l-11.07 7.19-10.35-24.36zm4.51-2.66L495.9 549l5.24 11.54zm14.23-4.7l13.42 29.56-27.27-21.86zm-3.67-14.84l21.86 1.54-16.9 9.39zm28.6-1.08l18.4-10.47 14.3 15.09-32.85-4.25zm46-26.56l13.31 11.18-20.42 17.91zm2.9-1.22l25.28-.65-12.81 11.18zm27.43 1.19l-1.79 20.35-10.94-9.19zm2.9-1l12.79 7.44-14.67 13.3zm3-1.5l23.31-3.33L621.49 525zm25.73-1.75v16.6L624 526.43zM638 515l11.1 5.35-11.1 11.48V515zm2.43-1.94l21.8-6.66v.31l-11.09 11.5zm21.8-2.31v12.81l-8.43-4.06zM665 507l5.66 3.37-5.66 10.04V507zm1.5-2.37l10.35-5.27-4.81 8.57zm12.5-3.31V512l-4.49-2.67zm9-25.23l9.56 2.18-15.07 13.88zm.91-2.66l2.09-6.33 6 8.2zm3-12l-1.2-11.16 11.78 1.73zm13.37-14.52l-4.78-16.31 7.19.36zm7.23-28.91l8.91 17.51-10.56-6.67zm11.06-17.49l6.07 15.35-14.84-2.36zm8.7 14.37l-6.14-15.5 13.94-4.75zm12.5-10.83l1.17 8-5.24-6.76zm2.71-.81l2.91-.87-2 6.87zm-.77-12.33l2.76-1.31.47 5.64zm-1.24-2.51l3.21-8.33.55 6.54zm6.11-7.24l2.45 3.17-2.1 1zm4.18-19.46l1.2 6.16-5.28 4.44zm2-4.22a1.35 1.35 0 0 0-.14-.68l2.94-7.62-2.07 12.12zm-15.23-75.36l1.34-1.43 1.21 3.72zm-2.76-11.29l.6-.94.85 2.61zm-5.66-7.15l2.47-5.45 2.35 7.23zm-3.79-15.05a1.36 1.36 0 0 0-.68-.19L727.5 238a1.36 1.36 0 0 0 .34-.79l5.88 13.54zM727 235.86l-.18-.85.42 1a1.34 1.34 0 0 0-.22-.16zM706.89 223l8.52-14.81 5.39 11.86zm.35-35.78l-3.38-6.08.36-2.63 3.06 8.56v.19zm-5.65-10.15l-2.46-4.43L702 174zm-8.52-15.32l4.36.17-1.71 4.59zm-.38-9.95l.87.12-1.2 2.36zm-3.28 3.38L687.1 151l2.81.39zm-1.5-6.87l2.9-3.63-.53 4zm-.86-3.4l.38-3.05 2.12-.07zm-2.92.77l-2-3.64 2.49-.08zm-1.45-6.46l2.78-4.14-.46 4.1zm-126.5-65.09l10.54-12 10.55 4.7zm-3.49-.27l-.92-18.43L564 60.89zM550 75.49l-11.44-4.82L549 55.21zm-29.94-12.27L531.24 49l3.46 20.08zm-2.22-1.71l-4.56-17.2 16 2.66zm-19.56-3.45l-5-16.82 15.82 2.86zm-28.86-7.57a1.38 1.38 0 0 0-.77 0l-3.38-16.89 21.81 6.1zm-25.78-21.93l-1.28-7.15L456 29zm-2.86-.09l-12.18-.38 10.88-6.9zm-27.16 5.81l-3.62 2.5-1.23-13.84 12.17 6.7zm-6.61.5l-14.81-13 13.62-.28zm-37.92-1l-5-16.83 21.08 3.87zM346.33 32l-4.18-13.84 16.72-1.26zm-17 .12l-4.49-12.27 12.81-1.28zm-17.07.14l-7.93-12.69.2-.36 15.47.61zm-17.08-.89l-12.6-5.49 16.82-4.76zm-17.37 10l-16.24-8.77 16.57-4.6zm-18 10.07l-17.18-11.91L257 33.81zM238.5 41.17l5.91 17.75L227 45.75zm-15 6L230.06 68l-19.95-15.56zm-18.08 7.13l-.85 17-11.92-11.94zM182.5 80.18l-11.14-12.37 16.79-6.66zm-22.23 8.12l-6.48-13.76 13.74-5.24zm-15.92 3l-3.45-12a1.34 1.34 0 0 0 .28-.38 1 1 0 0 0 0-.12l8.5-3.06zm-6.15-11.24l3.7 12.87-12.59-7.26zm-12.4 7.7l2.76 12.24L114 94.87zm-20.49 34.38l-19.36 3.37 7-14.12zm-21.41 7.34l13.37 8-.27.19-19.35 1.16zm-9.73 24.25L66 149.51l8-4.66zm-12.85 16l-3.17 12.5-7.35-5.91a1.34 1.34 0 0 0 .06-.39zm-13 8.16l7.56 6.11-13.77 1.8zm8 8.84L48.38 199l-7.13-10.3zm-8.65 18.41L53 217.79l-13.6-.69zM37.08 222.2l4.62 8.44-10 1.25zm-2 22.18l-13.91 1.72 7.39-10zm-7 14.41l-11.94 4.6 3.67-12.23zm.49 2.81l-5.38 11.57-6.29-7.08zm-4.9 31.63l-8.18-3.81 6.65-9.06zm9.08-4.68v28.53l-20.2-3.28zm2.7 33.11l17.3 13.93-24 13.1zm18.18 16.64l7.08 20.77-31.93-7.17zm11.83 25l29.85 9-4.09 6.43zm24.25 17.84l-11.26 17.7L66.13 367zm-18-18.87h30l-4.85 7.62zm32.81.79l14.1 13.43-19-5.75zm41.27 0l7.67 15.06h-25.74zm3.66 1l27.38 14h-20.22zm28 16.84l-15 8.78-4.45-8.75h19.45zm2.55 1.8l-8.77 24.11-7.44-14.61zm1.76 3.35l1.14 14.32-8.59 6.17zm2.7-1.31l6.59 9.79-5.49 3.94zm.81-3.81H210l-16.68 12zm27.39 1.54l-3.4 34.11-14.37-21.36zm42.73 17.21l-15.45 36.69-28-16.45zm8 34.18l-7.54 38.74-13.49-33.33zm30.77-23.77v34.4L268.57 432zm29.84 8.47v23.62l-25.14 2.75zm28.57 20.76l-17.39 34.32-8.1-29.13zm35.31 41l2.61 17.11L346 480.29h41.9zM408.82 514l-7.09 38.27-7.47-48.91zm48.28 36.41L451.73 603 405 559.52zm2.42 3.86l39.29 92.48-44.51-41.4zm42 98.8l1.16 2.73-55.77 22.2 7.06-69.1zM488 614.17l20.71 18.2-5 18.85zm-.93-4.55l11.37-3.79 8.42 21.17zm-1.27-2.53l1.25-29.93 10.35 26.07zm3.38-32.15l27.33 21.91-16.45 5.48zm15.55-13.25l18.82-10.46-5 41zm55.92-7l-13.36 13.19-18-17.25zm28-21.09l11.29 9.4-30.94 7.87zm33.15-5.18l11 6.37L608 541zm29.91-6.82l8.24 4-18.23 6.4zm21.35-9.84l4.65 2.77-10 6.76zm8.66-14.5l12.55-1.06-12.55 14.5v-13.45zm14.66-4l-12.1 1 14.07-13zm-3.79-28.67l11.23-10-4.16 19.6zm17.75-32.67l11.93 7.53-14.44 8.91zm4.4-15.55l16 2.55-6.53 16zm20.16-.64l2.24-5.82 1.06 5.7zm3.83 2.66l1.64 8.8-4.84-8.68zm1.06-9.59l5.09 6.56-3.84.15zM753 393.35l-.35 1.19-.52-6.22 1.88-.89zm2.08-12.17l-3.8-4.92 5.42-4.56zm9.82-40.87l6.09 8.12-10.19 15.88zm7 4.73l-5.9-7.81 8.29-2.34zm-6.24-10.61l3-16.16 5.5 13.75zm.34-21.52l-16.61 5.54v-22.83L766 312.53v.38zm-16.64-24.38l-4.53-14 16.52 8.76zm-5.75-17.7l-4.73-14.56 16.87 7.14zm-6.39-19l-6-13.88 13.59 5.05zM724.72 223l15 1.64-10.36 8.93zm-7.6-17.78l.14-.25 16.28 1.23-10.41 12.25zm-.55-4.22a1.35 1.35 0 0 0-.49.48l-.24.41-.18.23h-.06L710.9 189l15.24.3zm-11.28-27.71l11.27-.89-7.41 11.6zm-7.5-4.22l1.54-4.13 2 5.73zm-4.66-10l2.4-4.72 1.75 4.89zm-.07-9.92l.16-1.23.47 1.32zm-5.28-10l.6-4.79 1.68 4.71zm-6.94-2.15l-1.15-5.46 5.47-1zm-3.35-2.31l-2.7-2.27 2.14-.38zm-3.3-5l1.18-5 1 4.65zm-2.17-3l-2.18-6.06 4-1.63zm-2.53 1.25l-5.73-4.83 3.48-1.42zm-6.3-7.62l1-7.26 2.15 6zm-2.41-3.11l-3.16-7.34 4.33-1.58zm-2.49 1.29l-7.36-6.2 4.06-1.47zm-7.35-9.19l.3-7.18 2.63 6.11zm-2.62-4.25l-3.56-7.61 3.95-1.45zm-1.22 4l-10.33-8.71 5.36-1.95zm-11-11.43l1.14-9.77 3.74 8zm-2.47-3l-3-8.3 4.29-2.47zm-2.68.82l-6.57-5.54 3.76-2.16zM623.76 87V75.89l3.35 9.17zM621 83.11L617.58 75l3.42-3.39v11.5zm-2.15 2.13L612.56 80l2.87-2.86zm-6.49-9l.28-5.92 1.66 4zm-2.75-1l-4-6.48 4.51-3.7zm-2.07 2l-8-3.54 3.8-3.12zm-9.28-6.07l-.58-9.75 4.22 6.77zM595.39 70L590 61.43l4.64-3.85zm-3 .52l-8.63-3.85 4.06-3.37zm-9.64-6.65l-.64-9.57 4.2 6.62zm-3-2.54l-5.13-7.75L579 50zm-1.41 2.94l-10.06-4.48a1.38 1.38 0 0 0-.37-.88l4.51-3.58zm-11.52-8.07l-.71-10.41 4.76 7.21zm-3-2.29l-4.61-7.3 3.9-3.1zm-1.18 3.38l-10.77-4.89 5.13-4.11zM551 49.5l-.26-11.14 4.78 7.56zm-13.75 18l-3.47-20.12 13.1 5.83zM530 44.26l-15.23-2.54 9.57-8.38zm-3.49-12.82l4.57-4-.28 12.27zm-11.62 6.46l5.33-12.52 2.8 5.41zm-3.62 1.37l-2.89-9.57 9.62-6.22zm-2.33 2l-14.35-2.61 11.35-7.34zm-16.68-5.69l-1.81-10 9.5-3zm-2.48 2l-19.64-5.49 17.62-5.62zm-20.92-8l17.75-9.43.65 3.56zm-5.21-.4l-3.37-9.06 20.78-.2zm-3.38-1L446 20.2l11.34-.11zm-35.32-1l1.2-12 11.32 4.06zm-2.81 0l-11.55-6.36 12.82-6.26zM390.34 19l7.39-9 6.18 8.76zm-25-4.67l11.79-9.17 7.64 12.74zm-21.64.9l6.41-11.33 9.7 10.1zM324.94 17l4.79-11.47 7.74 10.21zm-64.63 13l3.41-12.73 14 7.84zm-35.06 13.42l1.23-12.51 10.75 7.76zM208.8 50l2.52-13.21 10.38 8.1zm-37.88 15l3.29-12.24 12.46 6zm-16.74 6.4L158.1 60l8 6.8zm-13.59 4.67l1.41-9.51 8.43 6zm-12.66 7.16l-.53-9.51 8.76 4.28zM113.36 92l1-10.88 9.78 4.4zM104 98.86L103 90l6 5.19zm-10.24 7.54l-4.4-6.68 10.53 2.16zm-10.28 17.78l-5.15-10.83 11.87-2.79zm-8.71 13.93l-5.91-11.83 12.38 2.12zm-11.43 9.71l-5-4.69 13.32-.13zm-2.14 4.12l.33 12.38-11.91-9zm-.8 15l-10.54 6.23-1.24-15.1zm-20.7 17.31l-2-11.4 8.47 3.15zm-1.36 5.18l7.58 10.92H28.13zm7.22 13.72l-8.38 12.25-9.4-12.25h17.78zm-10.41 16.77l-6.6 11.81-7.11-12.3zm-17.26 25.89l-7.66-8.73 15.35-1.65zm-4.68 17.57L6.13 256l10.78-5zm1.06 4l6.85 7.7-16 1.21zm6.15 10.56l-7 9.59-8.76-8.4zm-6.65 13.79l6.74 3.14-12.87 5.22zm8.47 5.47l-12.12 15.15-3.58-8.8zM32.86 320l.07.14-7.4 30.11-13.71-33.7zm-3.16 35l30.45 6.85L52.37 376zM51 378.58l-7.22 13.18L29 358.11zm11.08-14.4l12.59 32.58L54.48 378zm30.05 18.39l10 6L82 398.48zm1.5-2.36l4.47-7 22 6.65-14.91 7.3zm29.53 1.22l9.5 22.23-24.66-14.8zm3.79 1.76l22.19 14.36-12.84 7.53zm1.65-2.27h26.3l5.2 10.2-8.27 4.88zm32.77 12.7l6.46 12.69-13.36-8.65zm21.79 10l.68 8.51-9.17-2.42zm2.65-1.91l6.8-4.88L207 418.28l-20.3-5.38zm21.95 19.63l-18.63 21.86-2.19-27.36zm8.44 4.32l22 12.88-6.58 6.1zm13.31 20.88l-17.84 16.53v-38.54zm10.44-5.86l11.58 28.61-18.19-22.48zm25.81-4.27l10.89 23.32L258.44 474zm2.39-1.5l24.76 12-14 11zm25.55 15l-4.06 31-9.51-20.36zm2.9-.61l13.4 10.55-17.63 21.39zm2.5-1.6l23-2.52-10.29 12.48zm25.66-1.32l7.61 27.37L314 459.41zm65.53 53.9a1.41 1.41 0 0 0 .5.09h.21l8 52.46-59.67-72.11zm61.1 106.15l-6.88 67.33-39.29-110.21zm51.1 52.4l-8.2 66-46.47-44.22zm3.71-5.83l4.55-17.25 11.73 22.58zm-5.08-48l16.28-5.43-7.4 27.86zm25-51.35l11.52 23.83-16.34 16.06zm3.83 1.49l15.38 14.76-5.59 5.52zm19.4 14.73l11.65-11.6-4.83 18.12zm14.41-10.86l9.56 33.86-14.8-14.2zm2.33-2l21.55 14.25-11.2 22.37zm1-2.67l33.2-8.42-11.43 22.81zm34.77-5.34l1.83 29.45-12.46-8.24zm2.67-2.2l14.56 11.67L606.41 577zm1.48-2.4l27.36-6.83-12.7 18.58zm28.47-3.5l-3 23.86-8.57-6.87zm3.19-2.85l9.2 7.82-12.3 16.45zm1.7-2.23l20.39-7.2-11.21 15zm20.42-2.56l-5 15.67-4.11-3.5zm4.63-5.3l3.88 2.57-9.3 14.28zm1.74-2.2l9.3-6.29-5.64 8.71zm12.16-5.55l-1.42 12.67-4.75-3.15zm16.76-20.6L691 518l-8.41-4zm5.75-16L704 494.2l-4.79-.83zm5.9-29.11l7.72 10.87-12.16 10zm17.62-13.11l7 11.79-21.47-2.84zm8.93-21.35l6.92 12.42-13.6 3.93zm9.91 6.64l-1.59-8.49 4.14-.16zm21.79-14l-1.89 16.67-12.51-12.51zm-6.83-18.23l16.69-1-7.48 14.28zm-2-2.69l1-6a1.42 1.42 0 0 0 .16-.19 1.37 1.37 0 0 0 .13-.23 1.34 1.34 0 0 0 .08-.25 1.39 1.39 0 0 0 0-.8v-.13l2-11.85 16 18.38zm16.45-40.66l8.32 16.64-19.2.34zm8.68 11.1l-7.14-14.2 2.5-10.42L780 346zm-6.42-36.45l-4.78-11.94 3.91-1.59zm-25.25-34a1.39 1.39 0 0 0 .32-.45l12.69-5.49 2.8 22.07zm-3-19.48l11-6.75 4.4 15zm-7-18.83l7.19-8.44 8.45 15.09zm-7.77-18.32l10.41-9 3 14zm-6.47-14.91l11.2-13.21 4.5 15zm-6.22-17.94l10.15-12.44 6.15 13.68zm-7.93-16.2l8.24-13 8 13.32zm-5.42-15.73l3.92-11.83 7.49 10.93zm-2.22-2.19l-4.81-13.44 8.59 2zm-6.39-17.85l-3.41-9.53a1.38 1.38 0 0 0-.47-1.32l-1.84-5.15 7.17 8.2zm-18-21.57l-1.65-7.84 7.36 6.82zM668.9 118l-2.68-7.45 6.4 5.93zm-12.38-10.71l-4.1-9.53 8.55 7.91zm-13-12.38l-4.4-9.4 8.53 7.9zm-14-11.27L625.7 73l8.56 7.92zm-13.11-11.45l-2.92-7 6.7 3.26zM604 66.34l-5.15-8.27 9.56 4.65zM588.46 59l-5.55-8.76 10.16 4.94zm-15.39-7.88l-5.54-8.36 10 4.85zm-15.33-7l-5.59-8.84 10.37 5zm-9.59 2.16l-5.09-8.39 4.8-3.77zm-.8 4.07l-12.87-5.73 6.36-5zm-13.81-8.55l.31-13.7 5.53 9.11zm-8.36-13l-2.84-5.49 7.38 1.52zm-17.65-2l-1.68-5.57 8.51 1.15zm-17.6-4.11l-.64-3.5 8.25 1.07zm-30.7-5.52l-2-5.42L478.17 17zm-16.47-1.48l1.42-6.62 6.81 1.4zM439.65 17l-11.44-4.11 13-3.33zm-31.73 1.94a1.42 1.42 0 0 0-.59-.23l-7.11-10.09 20.33 4.13zm-20-1.35l-7.7-12.84L395.71 8zm-25.26-4.65l-9.51-10 20.66 1.29zm-22.08 2.27L332 3.93 347.42 3zm-17.91.1L314 6.78l13.16-2.25zm-19.77 1h-.23a1.35 1.35 0 0 0-.59.11l-9-7.14 14.68-1.73zm-22.53 7.09l-13.76-7.68 22.1-5.52zm-23 6.73l-12.81-7.22 16.23-5.52zm-18.63 6.17L228 28.55l12.71-4.33zm-15.3-5.85a1.4 1.4 0 0 0 .3-.21L222.58 42l-9.18-7.16zM206 49.59l-10.49-7L208.42 37zm-17 7.17l-12.38-6 14.15-6.16zm-21 8.05L160 58l11.13-4.85zM151.7 70l-7.86-5.56 11.36-4.59zm-13.89 5.73l-8.75-4.31 10.11-4.9zM124.6 73.8l.5 9-8.92-4zm-14.13 19l-6.9-6 7.93-5.09zm-10.36-3.57l1.1 10.07-11.52-2.37zm-13.79 11l4.79 7.28-11.58 2.69zm-10.15 15.09L81 125.53l-11.72-2zm-9.95 12l6.45 12.89-14.81.17zM55.21 144l5.49 5.19-10.41 3.06zm-8.14 29.38l-9.82-3.66 8.64-10.64zm-10 11.8l-9.28-3.42 7.21-8.33zm-10.47-.88l9.4 3.49L26.53 198zm-1.08 20.51l9.48 12.3-14-.5zm-6.6 15.86l6.89 11.92-15.26 1.64zM8.33 239.16l8 9.08-11.1 5.09zm-4.06 18.93l7.49 7.82-8.7 8.48zm7.45 31.71l-6.66 9.07-1.86-17.24zm11.53 65.56l-1.4 13.4-6.92-7.65zm2.55 2.51l13.06 29.7-14.48-16zm27.29 22.67l20.45 19-27.78-5.63zm51.91 9.78l24.68 14.83L83.25 401zm46.76 8.93l14.16 9.16-25.82-2.32zm32.31 15.85l1.9 23.76-12-26.44zm24.79 9.28v38.82L190 446.56zm22.4 24.37l21.38 26.41-39.52-9.6zm46.59 13.61l10 21.47-28.43-7zm34.39-.79l19.31 15.12-37.62 7.11zm180.61 265.74l-25 11.1-19.25-53.2zm1.88 2.23l30 53.71-55-42.61zm19.79 29.64a1.35 1.35 0 0 0 .31-.4l9.44-19 3.21 42.62zm-2.72-127.45l7-26.35 4.49 48.36zm27.11-51.63l10 20.7-26.56-4.35zm13.42 20.9a1.36 1.36 0 0 0 .38-.62l5-18.66 15.5 14.86zM590 572.71l12.6 8.29-23.27 13zm31.31-12.51l8.65 6.93-20.44 10.32zM649 547.67l4.2 3.57-14.37 10zm21.63-15.6l4.94 3.27-13.09 9.32zm10.91-15.51l8.18 3.88-9.82 10.74zm17.17-20.43l5.09.87-8.49 14.57zm7.65-3.88L702.64 480l9.71.58zm7-14.44l-8.89-.54 10-8.19zm2.79-15.12l-.11.09-6.86-9.66 19.82 2.64zm18.43-9.46l-7-11.83 19.42 7.37zm-6-14.45l12.89-3.78h.24a1.43 1.43 0 0 0 .45.34l6.36 10.89zm19.9-20L761 431.27l-16.45.88zm19.45-7l4.85 2.86-6.52 11.89zm5.72.12l-4-2.35 6.84-13zm4-22.79L761.94 371l19.84-.35zm-4.23-79.58l-4.51 1.83a1.4 1.4 0 0 0-.32-.25L766 290.49zm-67-155.82l-6.75-1.6 1.25-6.77zM545.81 32.23l-4.21 3.3-4.6-7.59zM22.89 352.2l-9 6.23L11 338.3zm728.77 94l-6.57-11.26 16.41-.88z"/></svg>