<svg id="Layer_1" xmlns="http://www.w3.org/2000/svg" viewBox="0 0 1792 1792"><style>.st0{fill:#0a90cb}</style><path class="st0" d="M1596 380c18.7 18.7 34.7 44 48 76s20 61.3 20 88v1152c0 26.7-9.3 49.3-28 68s-41.3 28-68 28H224c-26.7 0-49.3-9.3-68-28s-28-41.3-28-68V96c0-26.7 9.3-49.3 28-68s41.3-28 68-28h896c26.7 0 56 6.7 88 20s57.3 29.3 76 48l312 312zm-444-244v376h376c-6.7-19.3-14-33-22-41l-313-313c-8-8-21.7-15.3-41-22zm384 1528V640h-416c-26.7 0-49.3-9.3-68-28s-28-41.3-28-68V128H256v1536h1280zm-514-593c22 17.3 50 36 84 56 39.3-4.7 78.3-7 117-7 98 0 157 16.3 177 49 10.7 14.7 11.3 32 2 52 0 .7-.3 1.3-1 2l-2 2v1c-4 25.3-27.7 38-71 38-32 0-70.3-6.7-115-20s-88-31-130-53c-147.3 16-278 43.7-392 83-102 174.7-182.7 262-242 262-10 0-19.3-2.3-28-7l-24-12c-.7-.7-2.7-2.3-6-5-6.7-6.7-8.7-18.7-6-36 6-26.7 24.7-57.2 56-91.5s75.3-66.5 132-96.5c9.3-6 17-4 23 6 1.3 1.3 2 2.7 2 4 34.7-56.7 70.3-122.3 107-197 45.3-90.7 80-178 104-262-16-54.7-26.2-107.8-30.5-159.5s-2.2-94.2 6.5-127.5c7.3-26.7 21.3-40 42-40h22c15.3 0 27 5 35 15 12 14 15 36.7 9 68-1.3 4-2.7 6.7-4 8 .7 2 1 4.7 1 8v30c-1.3 82-6 146-14 192 36.7 109.3 85.3 188.7 146 238zm-576 411c34.7-16 80.3-68.7 137-158-34 26.7-63.2 54.7-87.5 84-24.3 29.3-40.8 54-49.5 74zm398-920c-10 28-10.7 72-2 132 .7-4.7 3-19.3 7-44 0-2 2.3-16.3 7-43 .7-2.7 2-5.3 4-8-.7-.7-1-1.3-1-2s-.2-1.2-.5-1.5-.5-.8-.5-1.5c-.7-14.7-5-26.7-13-36 0 .7-.3 1.3-1 2v2zm-124 661c90-36 184.7-63 284-81-1.3-.7-5.7-3.8-13-9.5s-12.7-10.2-16-13.5c-50.7-44.7-93-103.3-127-176-18 57.3-45.7 123-83 197-20 37.3-35 65-45 83zm646-16c-16-16-62.7-24-140-24 50.7 18.7 92 28 124 28 9.3 0 15.3-.3 18-1 0-.7-.7-1.7-2-3z"/></svg>