<svg id="Layer_1" xmlns="http://www.w3.org/2000/svg" viewBox="0 0 1792 1792"><style>.st0{fill:#0a90cb}</style><path class="st0" d="M1596 380c18.7 18.7 34.7 44 48 76s20 61.3 20 88v1152c0 26.7-9.3 49.3-28 68s-41.3 28-68 28H224c-26.7 0-49.3-9.3-68-28s-28-41.3-28-68V96c0-26.7 9.3-49.3 28-68s41.3-28 68-28h896c26.7 0 56 6.7 88 20s57.3 29.3 76 48l312 312zm-444-244v376h376c-6.7-19.3-14-33-22-41l-313-313c-8-8-21.7-15.3-41-22zm384 1528V640h-416c-26.7 0-49.3-9.3-68-28s-28-41.3-28-68V128H256v1536h1280zM361 768v107h70l164 661h159l128-485c4.7-13.3 8-28.7 10-46 1.3-10.7 2-18.7 2-24h4l3 24c.7 2 1.8 8.7 3.5 20s3.5 20 5.5 26l128 485h159l164-661h70V768h-300v107h90l-99 438c-3.3 13.3-5.7 28.7-7 46l-2 21h-4l-3-21c-.7-3.3-2-10.3-4-21s-3.7-19-5-25L953 768H839l-144 545c-1.3 6-2.8 14.2-4.5 24.5s-2.8 17.5-3.5 21.5l-4 21h-4l-2-21c-1.3-17.3-3.7-32.7-7-46l-99-438h90V768H361z"/></svg>