<svg xmlns="http://www.w3.org/2000/svg" viewBox="0 0 369 81.7"><style>.st0{fill:#fff}</style><g id="Layer_3"><path class="st0" d="M294.7 69.2v-6.6h6.6v6.6h-6.6zm10.5-13c.1-9.6.2-15.8 9.9-15.8 9.6 0 9.7 6.2 9.7 15.8 0 9.8-1.3 14-9.7 13.8-8.5.1-10-4.1-9.9-13.8zm6.5 3.9c0 3.4.3 4.9 3.4 4.9 3 0 3.2-1.5 3.2-4.9v-9.4c0-2.6 0-5.3-3.2-5.3-3.4 0-3.4 2.7-3.4 5.3v9.4zm25-14c.9-2 1.7-3.2 2.6-4 1.8-1.5 3.1-1.4 4-1.5v7.7c-3.6-.3-6.3.5-6.4 4.7v16.3h-6.5V41.1h6.2v5zm16.8 26.3c0 .6.3 1 .7 1.2.5.3 1.2.4 2 .4 2.7 0 3.2-2.2 3.2-4.4v-3.2l-.1-.1c-1.3 2.7-3.1 3.5-5.9 3.7-5.5 0-6.6-4.9-6.7-9.4V50.4c.2-7.7 2.5-9.9 6.7-10 2.9 0 4.7 1.1 5.6 3.6h.1v-2.9h6.5v27.3c0 5.7-1.6 10.3-10.5 10.3-4.3 0-7.8-1.6-8.2-6.3h6.6zm2.6-27c-3 0-2.7 2.6-2.9 5.4v9.4c.1 2.7.8 4.8 2.8 4.8 2.1 0 3.1-1.7 3.1-5v-8.4c.2-2.3.1-6.2-3-6.2zM122.6 31.1v7.6c0 2.7.2 25.8.2 19.2-1.5-5-2.8-8.9-4.4-12.7l-5.6-14h-7.4v38.5h7.2V39.9c0-2.4-.2-6.8-.2 3.5 1.4 4.7 2.7 8.7 4.3 12.5l5.6 13.7h7.5V31.1h-7.2zM149 65.3h-.1c-1 3.4-3 5-6.2 5.1-5.3 0-6.5-2.7-6.5-7.6V40.7h6.7v19.8c0 1.3 0 2.7.7 3.9.6.6 1.2.9 2.1.9 3.1 0 3.1-3.5 3.1-5.8V40.7h6.7v29H149v-4.4zm20-21.7h.1c1.5-3.2 4.2-3.6 6.4-3.8 2.5-.1 5.8 1 6.2 3.8h.1c1.3-2.5 3.4-3.8 6.7-3.8 4.9 0 7.1 3.1 7.1 6.2v23.6h-6.7V50.1c0-2.6-.3-5.2-3.2-5-2.9.2-3.4 2.2-3.4 5.5v19.1h-6.7v-20c0-2.6-.2-4.7-3.3-4.7-3.1.1-3.3 2.4-3.3 5.5v19.1h-6.7v-29h6.7v3zm32.6 7c-.3-6.8 3.2-10.7 9.8-10.7 9.3 0 10.3 4.8 10.3 12.7v3.9h-13.4v4.2c.1 3.8 1.5 4.5 3.5 4.5 2.5 0 3.2-1.8 3.1-5.4h6.7c.3 6.5-2.4 10.6-9.2 10.6-7.7 0-10.8-3.6-10.7-12.2l-.1-7.6zm13.4.8v-2.5c0-2.9-.8-3.9-3.5-3.9-3.3 0-3.2 2.6-3.2 5.2v1.2h6.7zm19.4-7.8h.1c1.5-3.3 4.5-3.8 6-3.8 3.8 0 6.9 2.2 6.7 7.4v22.3h-6.7V50.3c0-2.8-.3-4.7-2.8-4.8-2.5-.1-3.4 2.3-3.3 5.3v18.8h-6.7v-29h6.7v3zm28.8 26.1c-4 .5-9.5.8-9.5-4.6l-.1-32.5h6.7v8h8.3l-1.6 4.9h-6.6v18c.2 1.2 2 1.1 2.8 1v5.2zm20.7-.1c-.5-.9-.5-2-.4-3h-.1c-.8 1.2-1.6 2.2-2.7 2.8-1 .6-2.1 1-3.2 1-5.4 0-7.8-2.7-7.8-8.7 0-6.6 4.7-8.2 9.9-10.4 2.8-1.2 3.9-2.5 3.3-4.8-.3-1.3-1.3-1.5-3.1-1.5-3 0-3.5 1.6-3.5 4.2H270c-.1-5.5 1.7-9.3 10.1-9.3 9.1 0 9.7 4.8 9.6 8.6v17.1c0 1.4.2 2.7.6 4.1h-6.4zm-.9-15.2c-1.6 1.1-3.6 2.3-5.4 3.7-1 .8-1.1 2.3-1.1 3.5 0 2.2.7 3.7 3.1 3.7 4 0 3.2-5 3.4-7.8v-3.1zM77 61.1c-1.2 0-2.3.2-3.4.7l-8.3-14.9c2.4-1.6 4.1-4.3 4.1-7.5 0-4.9-4-8.9-8.9-8.9-1.4 0-2.7.3-3.8.9L48 16.2c-.5.4-1 .7-1.6.9L55 32.4c-2.1 1.6-3.5 4.2-3.5 7 0 2.5 1 4.8 2.7 6.4l-7.6 16.1c-1.1-.5-2.3-.8-3.6-.8-1 0-2 .2-3 .5l-8.3-15.9c1.6-1.6 2.7-3.9 2.7-6.3 0-2.9-1.4-5.4-3.5-7l8.6-15.3c-.6-.2-1.1-.6-1.6-.9l-8.5 15.2c-1.2-.6-2.5-.9-3.8-.9-4.9 0-8.9 4-8.9 8.9 0 3.1 1.6 5.9 4.1 7.5l-8.3 14.9c-1-.4-2.2-.7-3.4-.7C4 61.1 0 65.1 0 70s4 8.9 8.9 8.9 8.9-4 8.9-8.9c0-3.1-1.5-5.8-3.9-7.4l8.4-14.9c1 .4 2.1.6 3.2.6 1.7 0 3.4-.5 4.8-1.4l8.1 15.5C35.7 64 34 66.8 34 70c0 4.9 4 8.9 8.9 8.9s8.9-4 8.9-8.9c0-3-1.5-5.6-3.7-7.2L55.7 47c1.4.9 3 1.4 4.7 1.4 1.1 0 2.2-.2 3.2-.6L72 62.7c-2.3 1.6-3.9 4.3-3.9 7.4 0 4.9 4 8.9 8.9 8.9s8.9-4 8.9-8.9c0-5-4-9-8.9-9z"/><circle class="st0" cx="42.9" cy="8.9" r="8.9"/></g></svg>