<svg id="Layer_1" data-name="Layer 1" xmlns="http://www.w3.org/2000/svg" viewBox="0 0 234 150.95"><defs><style>.cls-1{fill:#999;}.cls-10,.cls-11,.cls-2,.cls-4,.cls-6,.cls-7{fill:none;stroke-miterlimit:10;}.cls-2,.cls-7{stroke:#000;}.cls-2,.cls-6{stroke-width:1.48px;}.cls-3,.cls-8{font-size:11px;}.cls-3{font-family:Arial-BoldMT, Arial;font-weight:700;}.cls-10,.cls-4,.cls-6{stroke:#00a651;}.cls-11,.cls-4{stroke-width:1.48px;}.cls-5{fill:#00a651;}.cls-7{stroke-width:1.24px;}.cls-8,.cls-9{font-family:ArialMT, Arial;}.cls-9{font-size:8px;}.cls-10{stroke-width:1.8px;}.cls-11{stroke:#ff6db6;}.cls-12{fill:#ff6db6;}</style></defs><title>Artboard 1</title><circle class="cls-1" cx="84.11" cy="24.4" r="1.73"/><circle class="cls-1" cx="92.22" cy="30.95" r="1.73"/><circle class="cls-1" cx="92.22" cy="35.77" r="1.73"/><circle class="cls-1" cx="92.22" cy="40.59" r="1.73"/><circle class="cls-1" cx="92.22" cy="45.41" r="1.73"/><circle class="cls-1" cx="100.59" cy="24.4" r="1.73"/><circle class="cls-1" cx="100.59" cy="29.22" r="1.73"/><circle class="cls-1" cx="100.59" cy="34.04" r="1.73"/><circle class="cls-1" cx="100.59" cy="38.86" r="1.73"/><circle class="cls-1" cx="108.7" cy="30.95" r="1.73"/><circle class="cls-1" cx="108.7" cy="35.77" r="1.73"/><circle class="cls-1" cx="108.7" cy="40.59" r="1.73"/><circle class="cls-1" cx="108.7" cy="45.41" r="1.73"/><circle class="cls-1" cx="118.1" cy="24.4" r="1.73"/><circle class="cls-1" cx="118.1" cy="29.22" r="1.73"/><circle class="cls-1" cx="118.1" cy="34.04" r="1.73"/><circle class="cls-1" cx="118.1" cy="38.86" r="1.73"/><circle class="cls-1" cx="126.22" cy="30.95" r="1.73"/><circle class="cls-1" cx="126.22" cy="35.77" r="1.73"/><circle class="cls-1" cx="126.22" cy="40.59" r="1.73"/><circle class="cls-1" cx="126.22" cy="45.41" r="1.73"/><circle class="cls-1" cx="134.58" cy="24.4" r="1.73"/><circle class="cls-1" cx="134.58" cy="29.22" r="1.73"/><circle class="cls-1" cx="134.58" cy="34.04" r="1.73"/><circle class="cls-1" cx="134.58" cy="38.86" r="1.73"/><circle class="cls-1" cx="142.69" cy="30.95" r="1.73"/><circle class="cls-1" cx="142.69" cy="35.77" r="1.73"/><circle class="cls-1" cx="142.69" cy="40.59" r="1.73"/><circle class="cls-1" cx="142.69" cy="45.41" r="1.73"/><circle class="cls-1" cx="152.12" cy="24.4" r="1.73"/><circle class="cls-1" cx="152.12" cy="29.22" r="1.73"/><circle class="cls-1" cx="152.12" cy="34.04" r="1.73"/><circle class="cls-1" cx="152.12" cy="38.86" r="1.73"/><circle class="cls-1" cx="160.23" cy="30.95" r="1.73"/><circle class="cls-1" cx="160.23" cy="35.77" r="1.73"/><circle class="cls-1" cx="160.23" cy="40.59" r="1.73"/><circle class="cls-1" cx="160.23" cy="45.41" r="1.73"/><circle class="cls-1" cx="168.59" cy="24.4" r="1.73"/><circle class="cls-1" cx="168.59" cy="29.22" r="1.73"/><circle class="cls-1" cx="168.59" cy="34.04" r="1.73"/><circle class="cls-1" cx="168.59" cy="38.86" r="1.73"/><circle class="cls-1" cx="176.71" cy="30.95" r="1.73"/><circle class="cls-1" cx="176.71" cy="35.77" r="1.73"/><circle class="cls-1" cx="176.71" cy="40.59" r="1.73"/><circle class="cls-1" cx="176.71" cy="45.41" r="1.73"/><circle class="cls-1" cx="186.11" cy="24.4" r="1.73"/><circle class="cls-1" cx="186.11" cy="29.22" r="1.73"/><circle class="cls-1" cx="186.11" cy="34.04" r="1.73"/><circle class="cls-1" cx="186.11" cy="38.86" r="1.73"/><circle class="cls-1" cx="194.22" cy="30.95" r="1.73"/><circle class="cls-1" cx="194.22" cy="35.77" r="1.73"/><circle class="cls-1" cx="194.22" cy="40.59" r="1.73"/><circle class="cls-1" cx="194.22" cy="45.41" r="1.73"/><circle class="cls-1" cx="202.59" cy="24.4" r="1.73"/><circle class="cls-1" cx="202.59" cy="29.22" r="1.73"/><circle class="cls-1" cx="202.59" cy="34.04" r="1.73"/><circle class="cls-1" cx="202.59" cy="38.86" r="1.73"/><circle class="cls-1" cx="210.7" cy="30.95" r="1.73"/><circle class="cls-1" cx="92.22" cy="26.13" r="1.73"/><circle class="cls-1" cx="108.7" cy="26.13" r="1.73"/><circle class="cls-1" cx="126.22" cy="26.13" r="1.73"/><circle class="cls-1" cx="142.69" cy="26.13" r="1.73"/><circle class="cls-1" cx="160.23" cy="26.13" r="1.73"/><circle class="cls-1" cx="176.71" cy="26.13" r="1.73"/><circle class="cls-1" cx="194.22" cy="26.13" r="1.73"/><circle class="cls-1" cx="210.7" cy="26.13" r="1.73"/><circle class="cls-1" cx="92.39" cy="123.16" r="1.73"/><circle class="cls-1" cx="98.36" cy="123.16" r="1.73"/><circle class="cls-1" cx="110.28" cy="123.16" r="1.73"/><circle class="cls-1" cx="104.32" cy="123.16" r="1.73"/><circle class="cls-1" cx="86.43" cy="134.04" r="1.73"/><circle class="cls-1" cx="92.39" cy="134.04" r="1.73"/><circle class="cls-1" cx="98.36" cy="134.04" r="1.73"/><circle class="cls-1" cx="104.32" cy="134.04" r="1.73"/><circle class="cls-1" cx="89.41" cy="128.6" r="1.73"/><circle class="cls-1" cx="95.37" cy="128.6" r="1.73"/><circle class="cls-1" cx="107.3" cy="128.6" r="1.73"/><circle class="cls-1" cx="101.34" cy="128.6" r="1.73"/><circle class="cls-1" cx="83.45" cy="139.48" r="1.73"/><circle class="cls-1" cx="89.41" cy="139.48" r="1.73"/><circle class="cls-1" cx="95.37" cy="139.48" r="1.73"/><circle class="cls-1" cx="101.34" cy="139.48" r="1.73"/><circle class="cls-1" cx="100.67" cy="44.05" r="1.73"/><circle class="cls-1" cx="84.07" cy="29.22" r="1.73"/><circle class="cls-1" cx="84.07" cy="34.04" r="1.73"/><circle class="cls-1" cx="84.07" cy="38.86" r="1.73"/><circle class="cls-1" cx="84.15" cy="44.05" r="1.73"/><circle class="cls-1" cx="118.19" cy="44.05" r="1.73"/><circle class="cls-1" cx="134.66" cy="44.05" r="1.73"/><circle class="cls-1" cx="152.2" cy="44.05" r="1.73"/><circle class="cls-1" cx="168.67" cy="44.05" r="1.73"/><circle class="cls-1" cx="186.19" cy="44.05" r="1.73"/><circle class="cls-1" cx="202.67" cy="44.05" r="1.73"/><circle class="cls-1" cx="210.7" cy="35.77" r="1.73"/><circle class="cls-1" cx="210.7" cy="40.59" r="1.73"/><circle class="cls-1" cx="210.7" cy="45.41" r="1.73"/><rect class="cls-2" x="73.62" y="16.42" width="148.29" height="37.07"/><rect class="cls-2" x="73.62" y="115.28" width="148.29" height="32.32"/><text class="cls-3" transform="translate(74.73 109.5)">Location Layer</text><line class="cls-4" x1="63.84" y1="131.32" x2="10.93" y2="131.32"/><polygon class="cls-5" points="71.7 131.32 60.63 126.8 63.26 131.32 60.63 135.84 71.7 131.32"/><line class="cls-6" x1="207.61" y1="107.42" x2="207.61" y2="53.49"/><polygon class="cls-5" points="207.61 115.28 212.13 104.21 207.61 106.84 203.09 104.21 207.61 115.28"/><circle class="cls-7" cx="37.63" cy="122.17" r="6.18"/><text class="cls-8" transform="translate(34.57 126.04)">1</text><circle class="cls-7" cx="197.76" cy="77.96" r="6.18"/><text class="cls-8" transform="translate(194.7 81.33)">4</text><circle class="cls-7" cx="167.83" cy="77.96" r="6.18"/><text class="cls-8" transform="translate(164.77 81.57)">2</text><circle class="cls-7" cx="37.63" cy="59.25" r="6.18"/><text class="cls-8" transform="translate(34.57 63.11)">3</text><text class="cls-9" transform="translate(14.1 82.34)">Sensory Input</text><text class="cls-9" transform="translate(18.55 145.6)">Motor Input</text><text class="cls-3" transform="translate(75.34 11.22)">Sensory Layer</text><polyline class="cls-10" points="118.73 63.03 118.73 69.46 10.93 68.95"/><polygon class="cls-5" points="118.73 53.49 113.24 66.93 118.73 63.74 124.22 66.93 118.73 53.49"/><circle class="cls-1" cx="126.22" cy="123.16" r="1.73"/><circle class="cls-1" cx="132.18" cy="123.16" r="1.73"/><circle class="cls-1" cx="144.11" cy="123.16" r="1.73"/><circle class="cls-1" cx="138.14" cy="123.16" r="1.73"/><circle class="cls-1" cx="120.25" cy="134.04" r="1.73"/><circle class="cls-1" cx="126.22" cy="134.04" r="1.73"/><circle class="cls-1" cx="132.18" cy="134.04" r="1.73"/><circle class="cls-1" cx="138.14" cy="134.04" r="1.73"/><circle class="cls-1" cx="123.23" cy="128.6" r="1.73"/><circle class="cls-1" cx="129.2" cy="128.6" r="1.73"/><circle class="cls-1" cx="141.13" cy="128.6" r="1.73"/><circle class="cls-1" cx="135.16" cy="128.6" r="1.73"/><circle class="cls-1" cx="117.27" cy="139.48" r="1.73"/><circle class="cls-1" cx="123.23" cy="139.48" r="1.73"/><circle class="cls-1" cx="129.2" cy="139.48" r="1.73"/><circle class="cls-1" cx="135.16" cy="139.48" r="1.73"/><circle class="cls-1" cx="160.04" cy="123.16" r="1.73"/><circle class="cls-1" cx="166.01" cy="123.16" r="1.73"/><circle class="cls-1" cx="177.93" cy="123.16" r="1.73"/><circle class="cls-1" cx="171.97" cy="123.16" r="1.73"/><circle class="cls-1" cx="154.08" cy="134.04" r="1.73"/><circle class="cls-1" cx="160.04" cy="134.04" r="1.73"/><circle class="cls-1" cx="166.01" cy="134.04" r="1.73"/><circle class="cls-1" cx="171.97" cy="134.04" r="1.73"/><circle class="cls-1" cx="157.06" cy="128.6" r="1.73"/><circle class="cls-1" cx="163.02" cy="128.6" r="1.73"/><circle class="cls-1" cx="174.95" cy="128.6" r="1.73"/><circle class="cls-1" cx="168.99" cy="128.6" r="1.73"/><circle class="cls-1" cx="151.1" cy="139.48" r="1.73"/><circle class="cls-1" cx="157.06" cy="139.48" r="1.73"/><circle class="cls-1" cx="163.02" cy="139.48" r="1.73"/><circle class="cls-1" cx="168.99" cy="139.48" r="1.73"/><circle class="cls-1" cx="193.87" cy="123.16" r="1.73"/><circle class="cls-1" cx="199.83" cy="123.16" r="1.73"/><circle class="cls-1" cx="211.76" cy="123.16" r="1.73"/><circle class="cls-1" cx="205.79" cy="123.16" r="1.73"/><circle class="cls-1" cx="187.9" cy="134.04" r="1.73"/><circle class="cls-1" cx="193.87" cy="134.04" r="1.73"/><circle class="cls-1" cx="199.83" cy="134.04" r="1.73"/><circle class="cls-1" cx="205.79" cy="134.04" r="1.73"/><circle class="cls-1" cx="190.88" cy="128.6" r="1.73"/><circle class="cls-1" cx="196.85" cy="128.6" r="1.73"/><circle class="cls-1" cx="208.78" cy="128.6" r="1.73"/><circle class="cls-1" cx="202.81" cy="128.6" r="1.73"/><circle class="cls-1" cx="184.92" cy="139.48" r="1.73"/><circle class="cls-1" cx="190.88" cy="139.48" r="1.73"/><circle class="cls-1" cx="196.85" cy="139.48" r="1.73"/><circle class="cls-1" cx="202.81" cy="139.48" r="1.73"/><line class="cls-11" x1="176.27" y1="115.27" x2="176.27" y2="58.73"/><polygon class="cls-12" points="176.27 53.5 179.29 60.87 176.27 59.12 173.26 60.87 176.27 53.5"/></svg>